<svg xmlns="http://www.w3.org/2000/svg" width="420mm" height="297mm" viewBox="0 0 1680 1188"><title>Compact latch · 11 × 10 holes — bottom worksheet</title><style>text{font-family:Arial,Helvetica,sans-serif;fill:#192b33}.mono{font-family:Courier New,monospace}</style><rect width="1680" height="1188" fill="white"/><text x="60.00" y="53.00" font-size="31" font-weight="bold">DARK MOTH / LATCH / BOTTOM</text><text x="60.00" y="85.00" font-size="19" >30.0 × 27.46 mm proposed isolated-pad layout · 2.54 mm pitch · not to scale for drilling</text><text x="60.00" y="115.00" font-size="20" font-weight="bold">SOLDER SIDE — mirror view; A1 right; same physical hole names</text><rect x="62" y="173" width="671.89" height="615.00" rx="8" fill="#f7faf8" stroke="#6a8275" stroke-width="2"/><text x="682.38" y="160.00" font-size="17" text-anchor="middle">1</text><text x="625.49" y="160.00" font-size="17" text-anchor="middle">2</text><text x="568.60" y="160.00" font-size="17" text-anchor="middle">3</text><text x="511.72" y="160.00" font-size="17" text-anchor="middle">4</text><text x="454.83" y="160.00" font-size="17" text-anchor="middle">5</text><text x="397.94" y="160.00" font-size="17" text-anchor="middle">6</text><text x="341.06" y="160.00" font-size="17" text-anchor="middle">7</text><text x="284.17" y="160.00" font-size="17" text-anchor="middle">8</text><text x="227.28" y="160.00" font-size="17" text-anchor="middle">9</text><text x="170.40" y="160.00" font-size="17" text-anchor="middle">10</text><text x="113.51" y="160.00" font-size="17" text-anchor="middle">11</text><text x="38.00" y="230.51" font-size="18" text-anchor="middle">A</text><circle cx="682.38" cy="224.51" r="3.2" fill="white" stroke="#b3c4ba" data-hole="A1"/><circle cx="625.49" cy="224.51" r="3.2" fill="white" stroke="#b3c4ba" data-hole="A2"/><circle cx="568.60" cy="224.51" r="3.2" fill="white" stroke="#b3c4ba" data-hole="A3"/><circle cx="511.72" cy="224.51" r="3.2" fill="white" stroke="#b3c4ba" data-hole="A4"/>
<circle cx="454.83" cy="224.51" r="3.2" fill="white" stroke="#b3c4ba" data-hole="A5"/><circle cx="397.94" cy="224.51" r="3.2" fill="white" stroke="#b3c4ba" data-hole="A6"/><circle cx="341.06" cy="224.51" r="3.2" fill="white" stroke="#b3c4ba" data-hole="A7"/><circle cx="284.17" cy="224.51" r="3.2" fill="white" stroke="#b3c4ba" data-hole="A8"/><circle cx="227.28" cy="224.51" r="3.2" fill="white" stroke="#b3c4ba" data-hole="A9"/><circle cx="170.40" cy="224.51" r="3.2" fill="white" stroke="#b3c4ba" data-hole="A10"/><circle cx="113.51" cy="224.51" r="3.2" fill="white" stroke="#b3c4ba" data-hole="A11"/><text x="38.00" y="287.40" font-size="18" text-anchor="middle">B</text><circle cx="682.38" cy="281.40" r="3.2" fill="white" stroke="#b3c4ba" data-hole="B1"/><circle cx="625.49" cy="281.40" r="3.2" fill="white" stroke="#b3c4ba" data-hole="B2"/><circle cx="568.60" cy="281.40" r="3.2" fill="white" stroke="#b3c4ba" data-hole="B3"/><circle cx="511.72" cy="281.40" r="3.2" fill="white" stroke="#b3c4ba" data-hole="B4"/><circle cx="454.83" cy="281.40" r="3.2" fill="white" stroke="#b3c4ba" data-hole="B5"/><circle cx="397.94" cy="281.40" r="3.2" fill="white" stroke="#b3c4ba" data-hole="B6"/><circle cx="341.06" cy="281.40" r="3.2" fill="white" stroke="#b3c4ba" data-hole="B7"/><circle cx="284.17" cy="281.40" r="3.2" fill="white" stroke="#b3c4ba" data-hole="B8"/><circle cx="227.28" cy="281.40" r="3.2" fill="white" stroke="#b3c4ba" data-hole="B9"/><circle cx="170.40" cy="281.40" r="3.2" fill="white" stroke="#b3c4ba" data-hole="B10"/><circle cx="113.51" cy="281.40" r="3.2" fill="white" stroke="#b3c4ba" data-hole="B11"/><text x="38.00" y="344.28" font-size="18" text-anchor="middle">C</text><circle cx="682.38" cy="338.28" r="3.2" fill="white" stroke="#b3c4ba" data-hole="C1"/><circle cx="625.49" cy="338.28" r="3.2" fill="white" stroke="#b3c4ba" data-hole="C2"/><circle cx="568.60" cy="338.28" r="3.2" fill="white" stroke="#b3c4ba" data-hole="C3"/><circle cx="511.72" cy="338.28" r="3.2" fill="white" stroke="#b3c4ba" data-hole="C4"/>
<circle cx="454.83" cy="338.28" r="3.2" fill="white" stroke="#b3c4ba" data-hole="C5"/><circle cx="397.94" cy="338.28" r="3.2" fill="white" stroke="#b3c4ba" data-hole="C6"/><circle cx="341.06" cy="338.28" r="3.2" fill="white" stroke="#b3c4ba" data-hole="C7"/><circle cx="284.17" cy="338.28" r="3.2" fill="white" stroke="#b3c4ba" data-hole="C8"/><circle cx="227.28" cy="338.28" r="3.2" fill="white" stroke="#b3c4ba" data-hole="C9"/><circle cx="170.40" cy="338.28" r="3.2" fill="white" stroke="#b3c4ba" data-hole="C10"/><circle cx="113.51" cy="338.28" r="3.2" fill="white" stroke="#b3c4ba" data-hole="C11"/><text x="38.00" y="401.17" font-size="18" text-anchor="middle">D</text><circle cx="682.38" cy="395.17" r="3.2" fill="white" stroke="#b3c4ba" data-hole="D1"/><circle cx="625.49" cy="395.17" r="3.2" fill="white" stroke="#b3c4ba" data-hole="D2"/><circle cx="568.60" cy="395.17" r="3.2" fill="white" stroke="#b3c4ba" data-hole="D3"/><circle cx="511.72" cy="395.17" r="3.2" fill="white" stroke="#b3c4ba" data-hole="D4"/><circle cx="454.83" cy="395.17" r="3.2" fill="white" stroke="#b3c4ba" data-hole="D5"/><circle cx="397.94" cy="395.17" r="3.2" fill="white" stroke="#b3c4ba" data-hole="D6"/><circle cx="341.06" cy="395.17" r="3.2" fill="white" stroke="#b3c4ba" data-hole="D7"/><circle cx="284.17" cy="395.17" r="3.2" fill="white" stroke="#b3c4ba" data-hole="D8"/><circle cx="227.28" cy="395.17" r="3.2" fill="white" stroke="#b3c4ba" data-hole="D9"/><circle cx="170.40" cy="395.17" r="3.2" fill="white" stroke="#b3c4ba" data-hole="D10"/><circle cx="113.51" cy="395.17" r="3.2" fill="white" stroke="#b3c4ba" data-hole="D11"/><text x="38.00" y="458.06" font-size="18" text-anchor="middle">E</text><circle cx="682.38" cy="452.06" r="3.2" fill="white" stroke="#b3c4ba" data-hole="E1"/><circle cx="625.49" cy="452.06" r="3.2" fill="white" stroke="#b3c4ba" data-hole="E2"/><circle cx="568.60" cy="452.06" r="3.2" fill="white" stroke="#b3c4ba" data-hole="E3"/><circle cx="511.72" cy="452.06" r="3.2" fill="white" stroke="#b3c4ba" data-hole="E4"/>
<circle cx="454.83" cy="452.06" r="3.2" fill="white" stroke="#b3c4ba" data-hole="E5"/><circle cx="397.94" cy="452.06" r="3.2" fill="white" stroke="#b3c4ba" data-hole="E6"/><circle cx="341.06" cy="452.06" r="3.2" fill="white" stroke="#b3c4ba" data-hole="E7"/><circle cx="284.17" cy="452.06" r="3.2" fill="white" stroke="#b3c4ba" data-hole="E8"/><circle cx="227.28" cy="452.06" r="3.2" fill="white" stroke="#b3c4ba" data-hole="E9"/><circle cx="170.40" cy="452.06" r="3.2" fill="white" stroke="#b3c4ba" data-hole="E10"/><circle cx="113.51" cy="452.06" r="3.2" fill="white" stroke="#b3c4ba" data-hole="E11"/><text x="38.00" y="514.94" font-size="18" text-anchor="middle">F</text><circle cx="682.38" cy="508.94" r="3.2" fill="white" stroke="#b3c4ba" data-hole="F1"/><circle cx="625.49" cy="508.94" r="3.2" fill="white" stroke="#b3c4ba" data-hole="F2"/><circle cx="568.60" cy="508.94" r="3.2" fill="white" stroke="#b3c4ba" data-hole="F3"/><circle cx="511.72" cy="508.94" r="3.2" fill="white" stroke="#b3c4ba" data-hole="F4"/><circle cx="454.83" cy="508.94" r="3.2" fill="white" stroke="#b3c4ba" data-hole="F5"/><circle cx="397.94" cy="508.94" r="3.2" fill="white" stroke="#b3c4ba" data-hole="F6"/><circle cx="341.06" cy="508.94" r="3.2" fill="white" stroke="#b3c4ba" data-hole="F7"/><circle cx="284.17" cy="508.94" r="3.2" fill="white" stroke="#b3c4ba" data-hole="F8"/><circle cx="227.28" cy="508.94" r="3.2" fill="white" stroke="#b3c4ba" data-hole="F9"/><circle cx="170.40" cy="508.94" r="3.2" fill="white" stroke="#b3c4ba" data-hole="F10"/><circle cx="113.51" cy="508.94" r="3.2" fill="white" stroke="#b3c4ba" data-hole="F11"/><text x="38.00" y="571.83" font-size="18" text-anchor="middle">G</text><circle cx="682.38" cy="565.83" r="3.2" fill="white" stroke="#b3c4ba" data-hole="G1"/><circle cx="625.49" cy="565.83" r="3.2" fill="white" stroke="#b3c4ba" data-hole="G2"/><circle cx="568.60" cy="565.83" r="3.2" fill="white" stroke="#b3c4ba" data-hole="G3"/><circle cx="511.72" cy="565.83" r="3.2" fill="white" stroke="#b3c4ba" data-hole="G4"/>
<circle cx="454.83" cy="565.83" r="3.2" fill="white" stroke="#b3c4ba" data-hole="G5"/><circle cx="397.94" cy="565.83" r="3.2" fill="white" stroke="#b3c4ba" data-hole="G6"/><circle cx="341.06" cy="565.83" r="3.2" fill="white" stroke="#b3c4ba" data-hole="G7"/><circle cx="284.17" cy="565.83" r="3.2" fill="white" stroke="#b3c4ba" data-hole="G8"/><circle cx="227.28" cy="565.83" r="3.2" fill="white" stroke="#b3c4ba" data-hole="G9"/><circle cx="170.40" cy="565.83" r="3.2" fill="white" stroke="#b3c4ba" data-hole="G10"/><circle cx="113.51" cy="565.83" r="3.2" fill="white" stroke="#b3c4ba" data-hole="G11"/><text x="38.00" y="628.72" font-size="18" text-anchor="middle">H</text><circle cx="682.38" cy="622.72" r="3.2" fill="white" stroke="#b3c4ba" data-hole="H1"/><circle cx="625.49" cy="622.72" r="3.2" fill="white" stroke="#b3c4ba" data-hole="H2"/><circle cx="568.60" cy="622.72" r="3.2" fill="white" stroke="#b3c4ba" data-hole="H3"/><circle cx="511.72" cy="622.72" r="3.2" fill="white" stroke="#b3c4ba" data-hole="H4"/><circle cx="454.83" cy="622.72" r="3.2" fill="white" stroke="#b3c4ba" data-hole="H5"/><circle cx="397.94" cy="622.72" r="3.2" fill="white" stroke="#b3c4ba" data-hole="H6"/><circle cx="341.06" cy="622.72" r="3.2" fill="white" stroke="#b3c4ba" data-hole="H7"/><circle cx="284.17" cy="622.72" r="3.2" fill="white" stroke="#b3c4ba" data-hole="H8"/><circle cx="227.28" cy="622.72" r="3.2" fill="white" stroke="#b3c4ba" data-hole="H9"/><circle cx="170.40" cy="622.72" r="3.2" fill="white" stroke="#b3c4ba" data-hole="H10"/><circle cx="113.51" cy="622.72" r="3.2" fill="white" stroke="#b3c4ba" data-hole="H11"/><text x="38.00" y="685.60" font-size="18" text-anchor="middle">I</text><circle cx="682.38" cy="679.60" r="3.2" fill="white" stroke="#b3c4ba" data-hole="I1"/><circle cx="625.49" cy="679.60" r="3.2" fill="white" stroke="#b3c4ba" data-hole="I2"/><circle cx="568.60" cy="679.60" r="3.2" fill="white" stroke="#b3c4ba" data-hole="I3"/><circle cx="511.72" cy="679.60" r="3.2" fill="white" stroke="#b3c4ba" data-hole="I4"/>
<circle cx="454.83" cy="679.60" r="3.2" fill="white" stroke="#b3c4ba" data-hole="I5"/><circle cx="397.94" cy="679.60" r="3.2" fill="white" stroke="#b3c4ba" data-hole="I6"/><circle cx="341.06" cy="679.60" r="3.2" fill="white" stroke="#b3c4ba" data-hole="I7"/><circle cx="284.17" cy="679.60" r="3.2" fill="white" stroke="#b3c4ba" data-hole="I8"/><circle cx="227.28" cy="679.60" r="3.2" fill="white" stroke="#b3c4ba" data-hole="I9"/><circle cx="170.40" cy="679.60" r="3.2" fill="white" stroke="#b3c4ba" data-hole="I10"/><circle cx="113.51" cy="679.60" r="3.2" fill="white" stroke="#b3c4ba" data-hole="I11"/><text x="38.00" y="742.49" font-size="18" text-anchor="middle">J</text><circle cx="682.38" cy="736.49" r="3.2" fill="white" stroke="#b3c4ba" data-hole="J1"/><circle cx="625.49" cy="736.49" r="3.2" fill="white" stroke="#b3c4ba" data-hole="J2"/><circle cx="568.60" cy="736.49" r="3.2" fill="white" stroke="#b3c4ba" data-hole="J3"/><circle cx="511.72" cy="736.49" r="3.2" fill="white" stroke="#b3c4ba" data-hole="J4"/><circle cx="454.83" cy="736.49" r="3.2" fill="white" stroke="#b3c4ba" data-hole="J5"/><circle cx="397.94" cy="736.49" r="3.2" fill="white" stroke="#b3c4ba" data-hole="J6"/><circle cx="341.06" cy="736.49" r="3.2" fill="white" stroke="#b3c4ba" data-hole="J7"/><circle cx="284.17" cy="736.49" r="3.2" fill="white" stroke="#b3c4ba" data-hole="J8"/><circle cx="227.28" cy="736.49" r="3.2" fill="white" stroke="#b3c4ba" data-hole="J9"/><circle cx="170.40" cy="736.49" r="3.2" fill="white" stroke="#b3c4ba" data-hole="J10"/><circle cx="113.51" cy="736.49" r="3.2" fill="white" stroke="#b3c4ba" data-hole="J11"/><circle cx="682.38" cy="224.51" r="10" fill="none" stroke="#192b33" /><text x="682.38" y="132.00" font-size="17" text-anchor="middle">A1 physical corner</text><g data-conductor="latch-L01" data-method="retained component leg"><path d="M682.38,395.17 L682.38,338.28 L625.49,338.28 L625.49,281.40" fill="none" stroke="white" stroke-width="9" stroke-linecap="round" stroke-linejoin="round"/><path d="M682.38,395.17 L682.38,338.28 L625.49,338.28 L625.49,281.40" fill="none" stroke="#737d82" stroke-width="4" stroke-linecap="round" stroke-linejoin="round"/>
</g><g data-conductor="latch-L02" data-method="retained component leg"><path d="M625.49,281.40 L625.49,224.51 L682.38,224.51" fill="none" stroke="white" stroke-width="9" stroke-linecap="round" stroke-linejoin="round"/><path d="M625.49,281.40 L625.49,224.51 L682.38,224.51" fill="none" stroke="#737d82" stroke-width="4" stroke-linecap="round" stroke-linejoin="round"/></g><g data-conductor="latch-L03" data-method="retained component leg"><path d="M625.49,395.17 L568.60,395.17" fill="none" stroke="white" stroke-width="9" stroke-linecap="round" stroke-linejoin="round"/><path d="M625.49,395.17 L568.60,395.17" fill="none" stroke="#737d82" stroke-width="4" stroke-linecap="round" stroke-linejoin="round"/></g><g data-conductor="latch-L04" data-method="retained component leg"><path d="M568.60,281.40 L568.60,338.28 L568.60,395.17" fill="none" stroke="white" stroke-width="9" stroke-linecap="round" stroke-linejoin="round"/><path d="M568.60,281.40 L568.60,338.28 L568.60,395.17" fill="none" stroke="#737d82" stroke-width="4" stroke-linecap="round" stroke-linejoin="round"/></g><g data-conductor="latch-L05" data-method="retained component leg"><path d="M511.72,281.40 L511.72,224.51 L454.83,224.51" fill="none" stroke="white" stroke-width="9" stroke-linecap="round" stroke-linejoin="round"/><path d="M511.72,281.40 L511.72,224.51 L454.83,224.51" fill="none" stroke="#737d82" stroke-width="4" stroke-linecap="round" stroke-linejoin="round"/></g><g data-conductor="latch-L06" data-method="retained component leg"><path d="M341.06,395.17 L341.06,338.28 L341.06,281.40" fill="none" stroke="white" stroke-width="9" stroke-linecap="round" stroke-linejoin="round"/><path d="M341.06,395.17 L341.06,338.28 L341.06,281.40" fill="none" stroke="#737d82" stroke-width="4" stroke-linecap="round" stroke-linejoin="round"/></g><g data-conductor="latch-L07" data-method="retained component leg"><path d="M284.17,281.40 L284.17,338.28 L284.17,395.17" fill="none" stroke="white" stroke-width="9" stroke-linecap="round" stroke-linejoin="round"/><path d="M284.17,281.40 L284.17,338.28 L284.17,395.17" fill="none" stroke="#737d82" stroke-width="4" stroke-linecap="round" stroke-linejoin="round"/>
</g><g data-conductor="latch-L08" data-method="retained component leg"><path d="M284.17,508.94 L284.17,452.06 L284.17,395.17" fill="none" stroke="white" stroke-width="9" stroke-linecap="round" stroke-linejoin="round"/><path d="M284.17,508.94 L284.17,452.06 L284.17,395.17" fill="none" stroke="#737d82" stroke-width="4" stroke-linecap="round" stroke-linejoin="round"/></g><g data-conductor="latch-L09" data-method="retained component leg"><path d="M227.28,281.40 L227.28,338.28 L227.28,395.17" fill="none" stroke="white" stroke-width="9" stroke-linecap="round" stroke-linejoin="round"/><path d="M227.28,281.40 L227.28,338.28 L227.28,395.17" fill="none" stroke="#737d82" stroke-width="4" stroke-linecap="round" stroke-linejoin="round"/></g><g data-conductor="latch-L10" data-method="retained component leg"><path d="M227.28,395.17 L170.40,395.17 L113.51,395.17" fill="none" stroke="white" stroke-width="9" stroke-linecap="round" stroke-linejoin="round"/><path d="M227.28,395.17 L170.40,395.17 L113.51,395.17" fill="none" stroke="#737d82" stroke-width="4" stroke-linecap="round" stroke-linejoin="round"/></g><g data-conductor="latch-L11" data-method="retained component leg"><path d="M511.72,508.94 L511.72,565.83 L454.83,565.83 L454.83,622.72" fill="none" stroke="white" stroke-width="9" stroke-linecap="round" stroke-linejoin="round"/><path d="M511.72,508.94 L511.72,565.83 L454.83,565.83 L454.83,622.72" fill="none" stroke="#737d82" stroke-width="4" stroke-linecap="round" stroke-linejoin="round"/></g><g data-conductor="latch-L12" data-method="retained component leg"><path d="M682.38,622.72 L682.38,679.60 L682.38,736.49" fill="none" stroke="white" stroke-width="9" stroke-linecap="round" stroke-linejoin="round"/><path d="M682.38,622.72 L682.38,679.60 L682.38,736.49" fill="none" stroke="#737d82" stroke-width="4" stroke-linecap="round" stroke-linejoin="round"/></g><g data-conductor="latch-L13" data-method="retained component leg"><path d="M454.83,736.49 L397.94,736.49 L341.06,736.49" fill="none" stroke="white" stroke-width="9" stroke-linecap="round" stroke-linejoin="round"/><path d="M454.83,736.49 L397.94,736.49 L341.06,736.49" fill="none" stroke="#737d82" stroke-width="4" stroke-linecap="round" stroke-linejoin="round"/>
</g><g data-conductor="latch-ground" data-method="ground bus"><path d="M113.51,736.49 L113.51,736.49 L113.51,395.17 L113.51,395.17" fill="none" stroke="white" stroke-width="9" stroke-linecap="round" stroke-linejoin="round"/><path d="M113.51,736.49 L113.51,736.49 L113.51,395.17 L113.51,395.17" fill="none" stroke="#577481" stroke-width="4" stroke-linecap="round" stroke-linejoin="round"/></g><circle cx="682.38" cy="224.51" r="6.5" fill="#f7faf8" stroke="none" /><circle cx="682.38" cy="224.51" r="3.2" fill="white" stroke="#b3c4ba" /><circle cx="625.49" cy="224.51" r="6.5" fill="#f7faf8" stroke="none" /><circle cx="625.49" cy="224.51" r="3.2" fill="white" stroke="#b3c4ba" /><circle cx="568.60" cy="224.51" r="6.5" fill="#f7faf8" stroke="none" /><circle cx="568.60" cy="224.51" r="3.2" fill="white" stroke="#b3c4ba" /><circle cx="511.72" cy="224.51" r="6.5" fill="#f7faf8" stroke="none" /><circle cx="511.72" cy="224.51" r="3.2" fill="white" stroke="#b3c4ba" /><circle cx="454.83" cy="224.51" r="6.5" fill="#f7faf8" stroke="none" /><circle cx="454.83" cy="224.51" r="3.2" fill="white" stroke="#b3c4ba" /><circle cx="397.94" cy="224.51" r="6.5" fill="#f7faf8" stroke="none" /><circle cx="397.94" cy="224.51" r="3.2" fill="white" stroke="#b3c4ba" /><circle cx="341.06" cy="224.51" r="6.5" fill="#f7faf8" stroke="none" /><circle cx="341.06" cy="224.51" r="3.2" fill="white" stroke="#b3c4ba" /><circle cx="284.17" cy="224.51" r="6.5" fill="#f7faf8" stroke="none" /><circle cx="284.17" cy="224.51" r="3.2" fill="white" stroke="#b3c4ba" /><circle cx="227.28" cy="224.51" r="6.5" fill="#f7faf8" stroke="none" /><circle cx="227.28" cy="224.51" r="3.2" fill="white" stroke="#b3c4ba" /><circle cx="170.40" cy="224.51" r="6.5" fill="#f7faf8" stroke="none" />
<circle cx="170.40" cy="224.51" r="3.2" fill="white" stroke="#b3c4ba" /><circle cx="113.51" cy="224.51" r="6.5" fill="#f7faf8" stroke="none" /><circle cx="113.51" cy="224.51" r="3.2" fill="white" stroke="#b3c4ba" /><circle cx="682.38" cy="281.40" r="6.5" fill="#f7faf8" stroke="none" /><circle cx="682.38" cy="281.40" r="3.2" fill="white" stroke="#b3c4ba" /><circle cx="625.49" cy="281.40" r="6.5" fill="#f7faf8" stroke="none" /><circle cx="625.49" cy="281.40" r="3.2" fill="white" stroke="#b3c4ba" /><circle cx="568.60" cy="281.40" r="6.5" fill="#f7faf8" stroke="none" /><circle cx="568.60" cy="281.40" r="3.2" fill="white" stroke="#b3c4ba" /><circle cx="511.72" cy="281.40" r="6.5" fill="#f7faf8" stroke="none" /><circle cx="511.72" cy="281.40" r="3.2" fill="white" stroke="#b3c4ba" /><circle cx="454.83" cy="281.40" r="6.5" fill="#f7faf8" stroke="none" /><circle cx="454.83" cy="281.40" r="3.2" fill="white" stroke="#b3c4ba" /><circle cx="397.94" cy="281.40" r="6.5" fill="#f7faf8" stroke="none" /><circle cx="397.94" cy="281.40" r="3.2" fill="white" stroke="#b3c4ba" /><circle cx="341.06" cy="281.40" r="6.5" fill="#f7faf8" stroke="none" /><circle cx="341.06" cy="281.40" r="3.2" fill="white" stroke="#b3c4ba" /><circle cx="284.17" cy="281.40" r="6.5" fill="#f7faf8" stroke="none" /><circle cx="284.17" cy="281.40" r="3.2" fill="white" stroke="#b3c4ba" /><circle cx="227.28" cy="281.40" r="6.5" fill="#f7faf8" stroke="none" /><circle cx="227.28" cy="281.40" r="3.2" fill="white" stroke="#b3c4ba" /><circle cx="170.40" cy="281.40" r="6.5" fill="#f7faf8" stroke="none" /><circle cx="170.40" cy="281.40" r="3.2" fill="white" stroke="#b3c4ba" /><circle cx="113.51" cy="281.40" r="6.5" fill="#f7faf8" stroke="none" />
<circle cx="113.51" cy="281.40" r="3.2" fill="white" stroke="#b3c4ba" /><circle cx="682.38" cy="338.28" r="6.5" fill="#f7faf8" stroke="none" /><circle cx="682.38" cy="338.28" r="3.2" fill="white" stroke="#b3c4ba" /><circle cx="625.49" cy="338.28" r="6.5" fill="#f7faf8" stroke="none" /><circle cx="625.49" cy="338.28" r="3.2" fill="white" stroke="#b3c4ba" /><circle cx="568.60" cy="338.28" r="6.5" fill="#f7faf8" stroke="none" /><circle cx="568.60" cy="338.28" r="3.2" fill="white" stroke="#b3c4ba" /><circle cx="511.72" cy="338.28" r="6.5" fill="#f7faf8" stroke="none" /><circle cx="511.72" cy="338.28" r="3.2" fill="white" stroke="#b3c4ba" /><circle cx="454.83" cy="338.28" r="6.5" fill="#f7faf8" stroke="none" /><circle cx="454.83" cy="338.28" r="3.2" fill="white" stroke="#b3c4ba" /><circle cx="397.94" cy="338.28" r="6.5" fill="#f7faf8" stroke="none" /><circle cx="397.94" cy="338.28" r="3.2" fill="white" stroke="#b3c4ba" /><circle cx="341.06" cy="338.28" r="6.5" fill="#f7faf8" stroke="none" /><circle cx="341.06" cy="338.28" r="3.2" fill="white" stroke="#b3c4ba" /><circle cx="284.17" cy="338.28" r="6.5" fill="#f7faf8" stroke="none" /><circle cx="284.17" cy="338.28" r="3.2" fill="white" stroke="#b3c4ba" /><circle cx="227.28" cy="338.28" r="6.5" fill="#f7faf8" stroke="none" /><circle cx="227.28" cy="338.28" r="3.2" fill="white" stroke="#b3c4ba" /><circle cx="170.40" cy="338.28" r="6.5" fill="#f7faf8" stroke="none" /><circle cx="170.40" cy="338.28" r="3.2" fill="white" stroke="#b3c4ba" /><circle cx="113.51" cy="338.28" r="6.5" fill="#f7faf8" stroke="none" /><circle cx="113.51" cy="338.28" r="3.2" fill="white" stroke="#b3c4ba" /><circle cx="682.38" cy="395.17" r="6.5" fill="#f7faf8" stroke="none" />
<circle cx="682.38" cy="395.17" r="3.2" fill="white" stroke="#b3c4ba" /><circle cx="625.49" cy="395.17" r="6.5" fill="#f7faf8" stroke="none" /><circle cx="625.49" cy="395.17" r="3.2" fill="white" stroke="#b3c4ba" /><circle cx="568.60" cy="395.17" r="6.5" fill="#f7faf8" stroke="none" /><circle cx="568.60" cy="395.17" r="3.2" fill="white" stroke="#b3c4ba" /><circle cx="511.72" cy="395.17" r="6.5" fill="#f7faf8" stroke="none" /><circle cx="511.72" cy="395.17" r="3.2" fill="white" stroke="#b3c4ba" /><circle cx="454.83" cy="395.17" r="6.5" fill="#f7faf8" stroke="none" /><circle cx="454.83" cy="395.17" r="3.2" fill="white" stroke="#b3c4ba" /><circle cx="397.94" cy="395.17" r="6.5" fill="#f7faf8" stroke="none" /><circle cx="397.94" cy="395.17" r="3.2" fill="white" stroke="#b3c4ba" /><circle cx="341.06" cy="395.17" r="6.5" fill="#f7faf8" stroke="none" /><circle cx="341.06" cy="395.17" r="3.2" fill="white" stroke="#b3c4ba" /><circle cx="284.17" cy="395.17" r="6.5" fill="#f7faf8" stroke="none" /><circle cx="284.17" cy="395.17" r="3.2" fill="white" stroke="#b3c4ba" /><circle cx="227.28" cy="395.17" r="6.5" fill="#f7faf8" stroke="none" /><circle cx="227.28" cy="395.17" r="3.2" fill="white" stroke="#b3c4ba" /><circle cx="170.40" cy="395.17" r="6.5" fill="#f7faf8" stroke="none" /><circle cx="170.40" cy="395.17" r="3.2" fill="white" stroke="#b3c4ba" /><circle cx="113.51" cy="395.17" r="6.5" fill="#f7faf8" stroke="none" /><circle cx="113.51" cy="395.17" r="3.2" fill="white" stroke="#b3c4ba" /><circle cx="682.38" cy="452.06" r="6.5" fill="#f7faf8" stroke="none" /><circle cx="682.38" cy="452.06" r="3.2" fill="white" stroke="#b3c4ba" /><circle cx="625.49" cy="452.06" r="6.5" fill="#f7faf8" stroke="none" />
<circle cx="625.49" cy="452.06" r="3.2" fill="white" stroke="#b3c4ba" /><circle cx="568.60" cy="452.06" r="6.5" fill="#f7faf8" stroke="none" /><circle cx="568.60" cy="452.06" r="3.2" fill="white" stroke="#b3c4ba" /><circle cx="511.72" cy="452.06" r="6.5" fill="#f7faf8" stroke="none" /><circle cx="511.72" cy="452.06" r="3.2" fill="white" stroke="#b3c4ba" /><circle cx="454.83" cy="452.06" r="6.5" fill="#f7faf8" stroke="none" /><circle cx="454.83" cy="452.06" r="3.2" fill="white" stroke="#b3c4ba" /><circle cx="397.94" cy="452.06" r="6.5" fill="#f7faf8" stroke="none" /><circle cx="397.94" cy="452.06" r="3.2" fill="white" stroke="#b3c4ba" /><circle cx="341.06" cy="452.06" r="6.5" fill="#f7faf8" stroke="none" /><circle cx="341.06" cy="452.06" r="3.2" fill="white" stroke="#b3c4ba" /><circle cx="284.17" cy="452.06" r="6.5" fill="#f7faf8" stroke="none" /><circle cx="284.17" cy="452.06" r="3.2" fill="white" stroke="#b3c4ba" /><circle cx="227.28" cy="452.06" r="6.5" fill="#f7faf8" stroke="none" /><circle cx="227.28" cy="452.06" r="3.2" fill="white" stroke="#b3c4ba" /><circle cx="170.40" cy="452.06" r="6.5" fill="#f7faf8" stroke="none" /><circle cx="170.40" cy="452.06" r="3.2" fill="white" stroke="#b3c4ba" /><circle cx="113.51" cy="452.06" r="6.5" fill="#f7faf8" stroke="none" /><circle cx="113.51" cy="452.06" r="3.2" fill="white" stroke="#b3c4ba" /><circle cx="682.38" cy="508.94" r="6.5" fill="#f7faf8" stroke="none" /><circle cx="682.38" cy="508.94" r="3.2" fill="white" stroke="#b3c4ba" /><circle cx="625.49" cy="508.94" r="6.5" fill="#f7faf8" stroke="none" /><circle cx="625.49" cy="508.94" r="3.2" fill="white" stroke="#b3c4ba" /><circle cx="568.60" cy="508.94" r="6.5" fill="#f7faf8" stroke="none" />
<circle cx="568.60" cy="508.94" r="3.2" fill="white" stroke="#b3c4ba" /><circle cx="511.72" cy="508.94" r="6.5" fill="#f7faf8" stroke="none" /><circle cx="511.72" cy="508.94" r="3.2" fill="white" stroke="#b3c4ba" /><circle cx="454.83" cy="508.94" r="6.5" fill="#f7faf8" stroke="none" /><circle cx="454.83" cy="508.94" r="3.2" fill="white" stroke="#b3c4ba" /><circle cx="397.94" cy="508.94" r="6.5" fill="#f7faf8" stroke="none" /><circle cx="397.94" cy="508.94" r="3.2" fill="white" stroke="#b3c4ba" /><circle cx="341.06" cy="508.94" r="6.5" fill="#f7faf8" stroke="none" /><circle cx="341.06" cy="508.94" r="3.2" fill="white" stroke="#b3c4ba" /><circle cx="284.17" cy="508.94" r="6.5" fill="#f7faf8" stroke="none" /><circle cx="284.17" cy="508.94" r="3.2" fill="white" stroke="#b3c4ba" /><circle cx="227.28" cy="508.94" r="6.5" fill="#f7faf8" stroke="none" /><circle cx="227.28" cy="508.94" r="3.2" fill="white" stroke="#b3c4ba" /><circle cx="170.40" cy="508.94" r="6.5" fill="#f7faf8" stroke="none" /><circle cx="170.40" cy="508.94" r="3.2" fill="white" stroke="#b3c4ba" /><circle cx="113.51" cy="508.94" r="6.5" fill="#f7faf8" stroke="none" /><circle cx="113.51" cy="508.94" r="3.2" fill="white" stroke="#b3c4ba" /><circle cx="682.38" cy="565.83" r="6.5" fill="#f7faf8" stroke="none" /><circle cx="682.38" cy="565.83" r="3.2" fill="white" stroke="#b3c4ba" /><circle cx="625.49" cy="565.83" r="6.5" fill="#f7faf8" stroke="none" /><circle cx="625.49" cy="565.83" r="3.2" fill="white" stroke="#b3c4ba" /><circle cx="568.60" cy="565.83" r="6.5" fill="#f7faf8" stroke="none" /><circle cx="568.60" cy="565.83" r="3.2" fill="white" stroke="#b3c4ba" /><circle cx="511.72" cy="565.83" r="6.5" fill="#f7faf8" stroke="none" />
<circle cx="511.72" cy="565.83" r="3.2" fill="white" stroke="#b3c4ba" /><circle cx="454.83" cy="565.83" r="6.5" fill="#f7faf8" stroke="none" /><circle cx="454.83" cy="565.83" r="3.2" fill="white" stroke="#b3c4ba" /><circle cx="397.94" cy="565.83" r="6.5" fill="#f7faf8" stroke="none" /><circle cx="397.94" cy="565.83" r="3.2" fill="white" stroke="#b3c4ba" /><circle cx="341.06" cy="565.83" r="6.5" fill="#f7faf8" stroke="none" /><circle cx="341.06" cy="565.83" r="3.2" fill="white" stroke="#b3c4ba" /><circle cx="284.17" cy="565.83" r="6.5" fill="#f7faf8" stroke="none" /><circle cx="284.17" cy="565.83" r="3.2" fill="white" stroke="#b3c4ba" /><circle cx="227.28" cy="565.83" r="6.5" fill="#f7faf8" stroke="none" /><circle cx="227.28" cy="565.83" r="3.2" fill="white" stroke="#b3c4ba" /><circle cx="170.40" cy="565.83" r="6.5" fill="#f7faf8" stroke="none" /><circle cx="170.40" cy="565.83" r="3.2" fill="white" stroke="#b3c4ba" /><circle cx="113.51" cy="565.83" r="6.5" fill="#f7faf8" stroke="none" /><circle cx="113.51" cy="565.83" r="3.2" fill="white" stroke="#b3c4ba" /><circle cx="682.38" cy="622.72" r="6.5" fill="#f7faf8" stroke="none" /><circle cx="682.38" cy="622.72" r="3.2" fill="white" stroke="#b3c4ba" /><circle cx="625.49" cy="622.72" r="6.5" fill="#f7faf8" stroke="none" /><circle cx="625.49" cy="622.72" r="3.2" fill="white" stroke="#b3c4ba" /><circle cx="568.60" cy="622.72" r="6.5" fill="#f7faf8" stroke="none" /><circle cx="568.60" cy="622.72" r="3.2" fill="white" stroke="#b3c4ba" /><circle cx="511.72" cy="622.72" r="6.5" fill="#f7faf8" stroke="none" /><circle cx="511.72" cy="622.72" r="3.2" fill="white" stroke="#b3c4ba" /><circle cx="454.83" cy="622.72" r="6.5" fill="#f7faf8" stroke="none" />
<circle cx="454.83" cy="622.72" r="3.2" fill="white" stroke="#b3c4ba" /><circle cx="397.94" cy="622.72" r="6.5" fill="#f7faf8" stroke="none" /><circle cx="397.94" cy="622.72" r="3.2" fill="white" stroke="#b3c4ba" /><circle cx="341.06" cy="622.72" r="6.5" fill="#f7faf8" stroke="none" /><circle cx="341.06" cy="622.72" r="3.2" fill="white" stroke="#b3c4ba" /><circle cx="284.17" cy="622.72" r="6.5" fill="#f7faf8" stroke="none" /><circle cx="284.17" cy="622.72" r="3.2" fill="white" stroke="#b3c4ba" /><circle cx="227.28" cy="622.72" r="6.5" fill="#f7faf8" stroke="none" /><circle cx="227.28" cy="622.72" r="3.2" fill="white" stroke="#b3c4ba" /><circle cx="170.40" cy="622.72" r="6.5" fill="#f7faf8" stroke="none" /><circle cx="170.40" cy="622.72" r="3.2" fill="white" stroke="#b3c4ba" /><circle cx="113.51" cy="622.72" r="6.5" fill="#f7faf8" stroke="none" /><circle cx="113.51" cy="622.72" r="3.2" fill="white" stroke="#b3c4ba" /><circle cx="682.38" cy="679.60" r="6.5" fill="#f7faf8" stroke="none" /><circle cx="682.38" cy="679.60" r="3.2" fill="white" stroke="#b3c4ba" /><circle cx="625.49" cy="679.60" r="6.5" fill="#f7faf8" stroke="none" /><circle cx="625.49" cy="679.60" r="3.2" fill="white" stroke="#b3c4ba" /><circle cx="568.60" cy="679.60" r="6.5" fill="#f7faf8" stroke="none" /><circle cx="568.60" cy="679.60" r="3.2" fill="white" stroke="#b3c4ba" /><circle cx="511.72" cy="679.60" r="6.5" fill="#f7faf8" stroke="none" /><circle cx="511.72" cy="679.60" r="3.2" fill="white" stroke="#b3c4ba" /><circle cx="454.83" cy="679.60" r="6.5" fill="#f7faf8" stroke="none" /><circle cx="454.83" cy="679.60" r="3.2" fill="white" stroke="#b3c4ba" /><circle cx="397.94" cy="679.60" r="6.5" fill="#f7faf8" stroke="none" />
<circle cx="397.94" cy="679.60" r="3.2" fill="white" stroke="#b3c4ba" /><circle cx="341.06" cy="679.60" r="6.5" fill="#f7faf8" stroke="none" /><circle cx="341.06" cy="679.60" r="3.2" fill="white" stroke="#b3c4ba" /><circle cx="284.17" cy="679.60" r="6.5" fill="#f7faf8" stroke="none" /><circle cx="284.17" cy="679.60" r="3.2" fill="white" stroke="#b3c4ba" /><circle cx="227.28" cy="679.60" r="6.5" fill="#f7faf8" stroke="none" /><circle cx="227.28" cy="679.60" r="3.2" fill="white" stroke="#b3c4ba" /><circle cx="170.40" cy="679.60" r="6.5" fill="#f7faf8" stroke="none" /><circle cx="170.40" cy="679.60" r="3.2" fill="white" stroke="#b3c4ba" /><circle cx="113.51" cy="679.60" r="6.5" fill="#f7faf8" stroke="none" /><circle cx="113.51" cy="679.60" r="3.2" fill="white" stroke="#b3c4ba" /><circle cx="682.38" cy="736.49" r="6.5" fill="#f7faf8" stroke="none" /><circle cx="682.38" cy="736.49" r="3.2" fill="white" stroke="#b3c4ba" /><circle cx="625.49" cy="736.49" r="6.5" fill="#f7faf8" stroke="none" /><circle cx="625.49" cy="736.49" r="3.2" fill="white" stroke="#b3c4ba" /><circle cx="568.60" cy="736.49" r="6.5" fill="#f7faf8" stroke="none" /><circle cx="568.60" cy="736.49" r="3.2" fill="white" stroke="#b3c4ba" /><circle cx="511.72" cy="736.49" r="6.5" fill="#f7faf8" stroke="none" /><circle cx="511.72" cy="736.49" r="3.2" fill="white" stroke="#b3c4ba" /><circle cx="454.83" cy="736.49" r="6.5" fill="#f7faf8" stroke="none" /><circle cx="454.83" cy="736.49" r="3.2" fill="white" stroke="#b3c4ba" /><circle cx="397.94" cy="736.49" r="6.5" fill="#f7faf8" stroke="none" /><circle cx="397.94" cy="736.49" r="3.2" fill="white" stroke="#b3c4ba" /><circle cx="341.06" cy="736.49" r="6.5" fill="#f7faf8" stroke="none" />
<circle cx="341.06" cy="736.49" r="3.2" fill="white" stroke="#b3c4ba" /><circle cx="284.17" cy="736.49" r="6.5" fill="#f7faf8" stroke="none" /><circle cx="284.17" cy="736.49" r="3.2" fill="white" stroke="#b3c4ba" /><circle cx="227.28" cy="736.49" r="6.5" fill="#f7faf8" stroke="none" /><circle cx="227.28" cy="736.49" r="3.2" fill="white" stroke="#b3c4ba" /><circle cx="170.40" cy="736.49" r="6.5" fill="#f7faf8" stroke="none" /><circle cx="170.40" cy="736.49" r="3.2" fill="white" stroke="#b3c4ba" /><circle cx="113.51" cy="736.49" r="6.5" fill="#f7faf8" stroke="none" /><circle cx="113.51" cy="736.49" r="3.2" fill="white" stroke="#b3c4ba" /><circle cx="682.38" cy="395.17" r="6" fill="#df593e" stroke="white" data-connected-hole="D1" data-net="OUT+" data-conductor="latch-L01"/><circle cx="682.38" cy="338.28" r="6" fill="#df593e" stroke="white" data-connected-hole="C1" data-net="OUT+" data-conductor="latch-L01"/><circle cx="625.49" cy="338.28" r="6" fill="#df593e" stroke="white" data-connected-hole="C2" data-net="OUT+" data-conductor="latch-L01"/><circle cx="625.49" cy="281.40" r="6" fill="#df593e" stroke="white" data-connected-hole="B2" data-net="OUT+" data-conductor="latch-L01"/><circle cx="653.93" cy="338.28" r="12" fill="white" stroke="#df593e" data-label-for="latch-L01" data-anchor-x="653.93" data-anchor-y="338.28"/><text x="653.93" y="342.28" font-size="12" text-anchor="middle">1</text><circle cx="625.49" cy="281.40" r="6" fill="#df593e" stroke="white" data-connected-hole="B2" data-net="OUT+" data-conductor="latch-L02"/><circle cx="625.49" cy="224.51" r="6" fill="#df593e" stroke="white" data-connected-hole="A2" data-net="OUT+" data-conductor="latch-L02"/><circle cx="682.38" cy="224.51" r="6" fill="#df593e" stroke="white" data-connected-hole="A1" data-net="OUT+" data-conductor="latch-L02"/><path d="M625.49,224.51 L625.49,198.51" fill="none" stroke="#52656d" stroke-width="1" stroke-linecap="round" stroke-linejoin="round"/><circle cx="625.49" cy="198.51" r="12" fill="white" stroke="#df593e" data-label-for="latch-L02" data-anchor-x="625.49" data-anchor-y="224.51"/><text x="625.49" y="202.51" font-size="12" text-anchor="middle">2</text><circle cx="625.49" cy="395.17" r="6" fill="#c48a35" stroke="white" data-connected-hole="D2" data-net="PB" data-conductor="latch-L03"/><circle cx="568.60" cy="395.17" r="6" fill="#c48a35" stroke="white" data-connected-hole="D3" data-net="PB" data-conductor="latch-L03"/><circle cx="597.05" cy="395.17" r="12" fill="white" stroke="#c48a35" data-label-for="latch-L03" data-anchor-x="597.05" data-anchor-y="395.17"/>
<text x="597.05" y="399.17" font-size="12" text-anchor="middle">3</text><circle cx="568.60" cy="281.40" r="6" fill="#c48a35" stroke="white" data-connected-hole="B3" data-net="PB" data-conductor="latch-L04"/><circle cx="568.60" cy="338.28" r="6" fill="#c48a35" stroke="white" data-connected-hole="C3" data-net="PB" data-conductor="latch-L04"/><circle cx="568.60" cy="395.17" r="6" fill="#c48a35" stroke="white" data-connected-hole="D3" data-net="PB" data-conductor="latch-L04"/><circle cx="568.60" cy="338.28" r="12" fill="white" stroke="#c48a35" data-label-for="latch-L04" data-anchor-x="568.60" data-anchor-y="338.28"/><text x="568.60" y="342.28" font-size="12" text-anchor="middle">4</text><circle cx="511.72" cy="281.40" r="6" fill="#dc9032" stroke="white" data-connected-hole="B4" data-net="VSW" data-conductor="latch-L05"/><circle cx="511.72" cy="224.51" r="6" fill="#dc9032" stroke="white" data-connected-hole="A4" data-net="VSW" data-conductor="latch-L05"/><circle cx="454.83" cy="224.51" r="6" fill="#dc9032" stroke="white" data-connected-hole="A5" data-net="VSW" data-conductor="latch-L05"/><path d="M511.72,224.51 L511.72,198.51" fill="none" stroke="#52656d" stroke-width="1" stroke-linecap="round" stroke-linejoin="round"/><circle cx="511.72" cy="198.51" r="12" fill="white" stroke="#dc9032" data-label-for="latch-L05" data-anchor-x="511.72" data-anchor-y="224.51"/><text x="511.72" y="202.51" font-size="12" text-anchor="middle">5</text><circle cx="341.06" cy="395.17" r="6" fill="#4cbfaa" stroke="white" data-connected-hole="D7" data-net="LDRV" data-conductor="latch-L06"/><circle cx="341.06" cy="338.28" r="6" fill="#4cbfaa" stroke="white" data-connected-hole="C7" data-net="LDRV" data-conductor="latch-L06"/><circle cx="341.06" cy="281.40" r="6" fill="#4cbfaa" stroke="white" data-connected-hole="B7" data-net="LDRV" data-conductor="latch-L06"/><circle cx="341.06" cy="338.28" r="12" fill="white" stroke="#4cbfaa" data-label-for="latch-L06" data-anchor-x="341.06" data-anchor-y="338.28"/><text x="341.06" y="342.28" font-size="12" text-anchor="middle">6</text><circle cx="284.17" cy="281.40" r="6" fill="#ae69dc" stroke="white" data-connected-hole="B8" data-net="GATE" data-conductor="latch-L07"/><circle cx="284.17" cy="338.28" r="6" fill="#ae69dc" stroke="white" data-connected-hole="C8" data-net="GATE" data-conductor="latch-L07"/><circle cx="284.17" cy="395.17" r="6" fill="#ae69dc" stroke="white" data-connected-hole="D8" data-net="GATE" data-conductor="latch-L07"/><circle cx="284.17" cy="338.28" r="12" fill="white" stroke="#ae69dc" data-label-for="latch-L07" data-anchor-x="284.17" data-anchor-y="338.28"/><text x="284.17" y="342.28" font-size="12" text-anchor="middle">7</text><circle cx="284.17" cy="508.94" r="6" fill="#ae69dc" stroke="white" data-connected-hole="F8" data-net="GATE" data-conductor="latch-L08"/><circle cx="284.17" cy="452.06" r="6" fill="#ae69dc" stroke="white" data-connected-hole="E8" data-net="GATE" data-conductor="latch-L08"/>
<circle cx="284.17" cy="395.17" r="6" fill="#ae69dc" stroke="white" data-connected-hole="D8" data-net="GATE" data-conductor="latch-L08"/><circle cx="284.17" cy="452.06" r="12" fill="white" stroke="#ae69dc" data-label-for="latch-L08" data-anchor-x="284.17" data-anchor-y="452.06"/><text x="284.17" y="456.06" font-size="12" text-anchor="middle">8</text><circle cx="227.28" cy="281.40" r="6" fill="#577481" stroke="white" data-connected-hole="B9" data-net="GND" data-conductor="latch-L09"/><circle cx="227.28" cy="338.28" r="6" fill="#577481" stroke="white" data-connected-hole="C9" data-net="GND" data-conductor="latch-L09"/><circle cx="227.28" cy="395.17" r="6" fill="#577481" stroke="white" data-connected-hole="D9" data-net="GND" data-conductor="latch-L09"/><circle cx="227.28" cy="338.28" r="12" fill="white" stroke="#577481" data-label-for="latch-L09" data-anchor-x="227.28" data-anchor-y="338.28"/><text x="227.28" y="342.28" font-size="12" text-anchor="middle">9</text><circle cx="227.28" cy="395.17" r="6" fill="#577481" stroke="white" data-connected-hole="D9" data-net="GND" data-conductor="latch-L10"/><circle cx="170.40" cy="395.17" r="6" fill="#577481" stroke="white" data-connected-hole="D10" data-net="GND" data-conductor="latch-L10"/><circle cx="113.51" cy="395.17" r="6" fill="#577481" stroke="white" data-connected-hole="D11" data-net="GND" data-conductor="latch-L10"/><circle cx="170.40" cy="395.17" r="12" fill="white" stroke="#577481" data-label-for="latch-L10" data-anchor-x="170.40" data-anchor-y="395.17"/><text x="170.40" y="399.17" font-size="12" text-anchor="middle">10</text><circle cx="511.72" cy="508.94" r="6" fill="#a99851" stroke="white" data-connected-hole="F4" data-net="BTN_DIO" data-conductor="latch-L11"/><circle cx="511.72" cy="565.83" r="6" fill="#a99851" stroke="white" data-connected-hole="G4" data-net="BTN_DIO" data-conductor="latch-L11"/><circle cx="454.83" cy="565.83" r="6" fill="#a99851" stroke="white" data-connected-hole="G5" data-net="BTN_DIO" data-conductor="latch-L11"/><circle cx="454.83" cy="622.72" r="6" fill="#a99851" stroke="white" data-connected-hole="H5" data-net="BTN_DIO" data-conductor="latch-L11"/><circle cx="483.27" cy="565.83" r="12" fill="white" stroke="#a99851" data-label-for="latch-L11" data-anchor-x="483.27" data-anchor-y="565.83"/><text x="483.27" y="569.83" font-size="12" text-anchor="middle">11</text><circle cx="682.38" cy="622.72" r="6" fill="#ee739a" stroke="white" data-connected-hole="H1" data-net="BTN_N" data-conductor="latch-L12"/><circle cx="682.38" cy="679.60" r="6" fill="#ee739a" stroke="white" data-connected-hole="I1" data-net="BTN_N" data-conductor="latch-L12"/><circle cx="682.38" cy="736.49" r="6" fill="#ee739a" stroke="white" data-connected-hole="J1" data-net="BTN_N" data-conductor="latch-L12"/><circle cx="682.38" cy="679.60" r="12" fill="white" stroke="#ee739a" data-label-for="latch-L12" data-anchor-x="682.38" data-anchor-y="679.60"/><text x="682.38" y="683.60" font-size="12" text-anchor="middle">12</text>
<circle cx="454.83" cy="736.49" r="6" fill="#35a5c9" stroke="white" data-connected-hole="J5" data-net="SENSE" data-conductor="latch-L13"/><circle cx="397.94" cy="736.49" r="6" fill="#35a5c9" stroke="white" data-connected-hole="J6" data-net="SENSE" data-conductor="latch-L13"/><circle cx="341.06" cy="736.49" r="6" fill="#35a5c9" stroke="white" data-connected-hole="J7" data-net="SENSE" data-conductor="latch-L13"/><circle cx="397.94" cy="736.49" r="12" fill="white" stroke="#35a5c9" data-label-for="latch-L13" data-anchor-x="397.94" data-anchor-y="736.49"/><text x="397.94" y="740.49" font-size="12" text-anchor="middle">13</text><circle cx="113.51" cy="736.49" r="6" fill="#577481" stroke="white" data-connected-hole="J11" data-net="GND" data-conductor="latch-ground"/><circle cx="113.51" cy="679.60" r="6" fill="#577481" stroke="white" data-connected-hole="I11" data-net="GND" data-conductor="latch-ground"/><circle cx="113.51" cy="622.72" r="6" fill="#577481" stroke="white" data-connected-hole="H11" data-net="GND" data-conductor="latch-ground"/><circle cx="113.51" cy="565.83" r="6" fill="#577481" stroke="white" data-connected-hole="G11" data-net="GND" data-conductor="latch-ground"/><circle cx="113.51" cy="508.94" r="6" fill="#577481" stroke="white" data-connected-hole="F11" data-net="GND" data-conductor="latch-ground"/><circle cx="113.51" cy="452.06" r="6" fill="#577481" stroke="white" data-connected-hole="E11" data-net="GND" data-conductor="latch-ground"/><circle cx="113.51" cy="395.17" r="6" fill="#577481" stroke="white" data-connected-hole="D11" data-net="GND" data-conductor="latch-ground"/><path d="M113.51,565.83 L113.51,539.83" fill="none" stroke="#52656d" stroke-width="1" stroke-linecap="round" stroke-linejoin="round"/><circle cx="113.51" cy="539.83" r="12" fill="white" stroke="#577481" data-label-for="latch-ground" data-anchor-x="113.51" data-anchor-y="565.83"/><text x="113.51" y="543.83" font-size="12" text-anchor="middle">14</text><text x="62.00" y="832.00" font-size="18" font-weight="bold">EXTERNAL WIRE TERMINALS · square marks on the board</text><rect x="674.38" y="216.51" width="16" height="16" fill="none" stroke="#df593e" stroke-width="2"/><text x="62.00" y="861.00" font-size="16" font-weight="bold">A1  OUT+</text><text x="62.00" y="880.00" font-size="14" >CHG.OUT+</text><rect x="617.49" y="216.51" width="16" height="16" fill="none" stroke="#df593e" stroke-width="2"/><text x="500.00" y="861.00" font-size="16" font-weight="bold">A2  OUT+</text><text x="500.00" y="880.00" font-size="14" >BUTTON_PLUG.OUT+ → SW_REMOTE.contact_A</text><rect x="503.72" y="216.51" width="16" height="16" fill="none" stroke="#dc9032" stroke-width="2"/><text x="62.00" y="906.00" font-size="16" font-weight="bold">A4  VSW</text>
<text x="62.00" y="925.00" font-size="14" >BOOST.VIN+</text><rect x="446.83" y="216.51" width="16" height="16" fill="none" stroke="#dc9032" stroke-width="2"/><text x="500.00" y="906.00" font-size="16" font-weight="bold">A5  VSW</text><text x="500.00" y="925.00" font-size="14" >ESP.5V / VIN</text><rect x="674.38" y="614.72" width="16" height="16" fill="none" stroke="#ee739a" stroke-width="2"/><text x="62.00" y="951.00" font-size="16" font-weight="bold">H1  BTN_N</text><text x="62.00" y="970.00" font-size="14" >BUTTON_PLUG.BTN_N → SW_REMOTE.contact_B</text><rect x="105.51" y="444.06" width="16" height="16" fill="none" stroke="#577481" stroke-width="2"/><text x="500.00" y="951.00" font-size="16" font-weight="bold">E11  GND</text><text x="500.00" y="970.00" font-size="14" >CHG.OUT- (not BAT-)</text><rect x="105.51" y="500.94" width="16" height="16" fill="none" stroke="#577481" stroke-width="2"/><text x="62.00" y="996.00" font-size="16" font-weight="bold">F11  GND</text><text x="62.00" y="1015.00" font-size="14" >ESP.GND</text><rect x="105.51" y="557.83" width="16" height="16" fill="none" stroke="#577481" stroke-width="2"/><text x="500.00" y="996.00" font-size="16" font-weight="bold">G11  GND</text><text x="500.00" y="1015.00" font-size="14" >BOOST.VIN-</text><rect x="105.51" y="614.72" width="16" height="16" fill="none" stroke="#577481" stroke-width="2"/><text x="62.00" y="1041.00" font-size="16" font-weight="bold">H11  GND</text><text x="62.00" y="1060.00" font-size="14" >BOOST.VOUT-</text><rect x="105.51" y="671.60" width="16" height="16" fill="none" stroke="#577481" stroke-width="2"/><text x="500.00" y="1041.00" font-size="16" font-weight="bold">I11  GND</text><text x="500.00" y="1060.00" font-size="14" >Driver C13 / GND</text><rect x="276.17" y="273.40" width="16" height="16" fill="none" stroke="#ae69dc" stroke-width="2"/><text x="62.00" y="1086.00" font-size="16" font-weight="bold">B8  GATE</text>
<text x="62.00" y="1105.00" font-size="14" >C3: ESP GPIO3 / S3: ESP GPIO9</text><rect x="333.06" y="728.49" width="16" height="16" fill="none" stroke="#35a5c9" stroke-width="2"/><text x="500.00" y="1086.00" font-size="16" font-weight="bold">J7  SENSE</text><text x="500.00" y="1105.00" font-size="14" >C3: ESP GPIO4 / S3: ESP GPIO8</text><text x="968.00" y="138.00" font-size="18" font-weight="bold">CONNECTIONS · one row per physical conductor</text><text x="968.00" y="169.00" font-size="16" class="mono">01 LEG  D1 → B2  OUT+</text><text x="998.00" y="188.00" font-size="12" >Rbe.1 · keep 9.62 mm · solder D1 / C1 / C2 / B2</text><text x="968.00" y="207.00" font-size="16" class="mono">02 LEG  B2 → A1  OUT+</text><text x="998.00" y="226.00" font-size="12" >QP.E · keep 7.08 mm · solder B2 / A2 / A1</text><text x="968.00" y="245.00" font-size="16" class="mono">03 LEG  D2 → D3  PB</text><text x="998.00" y="264.00" font-size="12" >Rbe.2 · keep 4.54 mm · solder D2 / D3</text><text x="968.00" y="283.00" font-size="16" class="mono">04 LEG  B3 → D3  PB</text><text x="998.00" y="302.00" font-size="12" >QP.B · keep 7.08 mm · solder B3 / C3 / D3</text><text x="968.00" y="321.00" font-size="16" class="mono">05 LEG  B4 → A5  VSW</text><text x="998.00" y="340.00" font-size="12" >QP.C · keep 7.08 mm · solder B4 / A4 / A5</text><text x="968.00" y="359.00" font-size="16" class="mono">06 LEG  D7 → B7  LDRV</text><text x="998.00" y="378.00" font-size="12" >Rb.2 · keep 7.08 mm · solder D7 / C7 / B7</text><text x="968.00" y="397.00" font-size="16" class="mono">07 LEG  B8 → D8  GATE</text><text x="998.00" y="416.00" font-size="12" >QL.G · keep 7.08 mm · solder B8 / C8 / D8</text><text x="968.00" y="435.00" font-size="16" class="mono">08 LEG  F8 → D8  GATE</text><text x="998.00" y="454.00" font-size="12" >Rbtn.1 · keep 7.08 mm · solder F8 / E8 / D8</text><text x="968.00" y="473.00" font-size="16" class="mono">09 LEG  B9 → D9  GND</text><text x="998.00" y="492.00" font-size="12" >QL.S · keep 7.08 mm · solder B9 / C9 / D9</text><text x="968.00" y="511.00" font-size="16" class="mono">10 LEG  D9 → D11  GND</text>
<text x="998.00" y="530.00" font-size="12" >Rgl.2 · keep 7.08 mm · solder D9 / D10 / D11</text><text x="968.00" y="549.00" font-size="16" class="mono">11 LEG  F4 → H5  BTN_DIO</text><text x="998.00" y="568.00" font-size="12" >Rbtn.2 · keep 9.62 mm · solder F4 / G4 / G5 / H5</text><text x="968.00" y="587.00" font-size="16" class="mono">12 LEG  H1 → J1  BTN_N</text><text x="998.00" y="606.00" font-size="12" >Db.A · keep 7.08 mm · solder H1 / I1 / J1</text><text x="968.00" y="625.00" font-size="16" class="mono">13 LEG  J5 → J7  SENSE</text><text x="998.00" y="644.00" font-size="12" >Rs1.2 · keep 7.08 mm · solder J5 / J6 / J7</text><text x="968.00" y="663.00" font-size="16" class="mono">14 BUS  J11 → D11  GND</text><text x="998.00" y="682.00" font-size="12" >Taps: J11 / I11 / H11 / G11 / F11 / E11 / D11</text><text x="968.00" y="708.00" font-size="14" >LEG = existing component leg, bare silver line. WIRE/BUS = added</text><text x="968.00" y="727.00" font-size="14" >insulated conductor. Filled dots are deliberate solder joints,</text><text x="968.00" y="746.00" font-size="14" >including intermediate pads. White gaps at other pads do not join.</text><text x="968.00" y="765.00" font-size="14" >Solder every hole listed for each retained leg and bus.</text><text x="968.00" y="970.00" font-size="17" >Identify actual E/B/C or D/G/S roles first; package outlines</text><text x="968.00" y="993.00" font-size="17" >do not specify pin order. Leave retained legs untrimmed until</text><text x="968.00" y="1016.00" font-size="17" >their joints are complete. Insulate crossings that are not</text><text x="968.00" y="1039.00" font-size="17" >joined.</text><path d="M60.00,1134.00 L1615.00,1134.00" fill="none" stroke="#c5cfd2" stroke-width="1" stroke-linecap="round" stroke-linejoin="round"/><text x="60.00" y="1161.00" font-size="16" >Only listed solder joints connect. Blank-board pads are separate. OUT− is system ground; BAT− stays separate.</text><text x="1615.00" y="1161.00" font-size="14" text-anchor="end">perfboard-reference-2</text></svg>
