<svg xmlns="http://www.w3.org/2000/svg" width="420mm" height="297mm" viewBox="0 0 1680 1188"><title>Five-channel driver · existing 35 × 15 mm proposal — bottom worksheet</title><style>text{font-family:Arial,Helvetica,sans-serif;fill:#192b33}.mono{font-family:Courier New,monospace}</style><rect width="1680" height="1188" fill="white"/><text x="60.00" y="53.00" font-size="31" font-weight="bold">DARK MOTH / DRIVER / BOTTOM</text><text x="60.00" y="85.00" font-size="19" >35 × 15 mm proposed isolated-pad layout · 2.54 mm pitch · not to scale for drilling</text><text x="60.00" y="115.00" font-size="20" font-weight="bold">SOLDER SIDE — mirror view; A1 right; same physical hole names</text><rect x="62" y="173" width="850.00" height="364.29" rx="8" fill="#f7faf8" stroke="#6a8275" stroke-width="2"/><text x="857.11" y="160.00" font-size="17" text-anchor="middle">1</text><text x="795.43" y="160.00" font-size="17" text-anchor="middle">2</text><text x="733.74" y="160.00" font-size="17" text-anchor="middle">3</text><text x="672.06" y="160.00" font-size="17" text-anchor="middle">4</text><text x="610.37" y="160.00" font-size="17" text-anchor="middle">5</text><text x="548.69" y="160.00" font-size="17" text-anchor="middle">6</text><text x="487.00" y="160.00" font-size="17" text-anchor="middle">7</text><text x="425.31" y="160.00" font-size="17" text-anchor="middle">8</text><text x="363.63" y="160.00" font-size="17" text-anchor="middle">9</text><text x="301.94" y="160.00" font-size="17" text-anchor="middle">10</text><text x="240.26" y="160.00" font-size="17" text-anchor="middle">11</text><text x="178.57" y="160.00" font-size="17" text-anchor="middle">12</text><text x="116.89" y="160.00" font-size="17" text-anchor="middle">13</text><text x="38.00" y="237.77" font-size="18" text-anchor="middle">A</text><circle cx="857.11" cy="231.77" r="3.2" fill="white" stroke="#b3c4ba" data-hole="A1"/><circle cx="795.43" cy="231.77" r="3.2" fill="white" stroke="#b3c4ba" data-hole="A2"/>
<circle cx="733.74" cy="231.77" r="3.2" fill="white" stroke="#b3c4ba" data-hole="A3"/><circle cx="672.06" cy="231.77" r="3.2" fill="white" stroke="#b3c4ba" data-hole="A4"/><circle cx="610.37" cy="231.77" r="3.2" fill="white" stroke="#b3c4ba" data-hole="A5"/><circle cx="548.69" cy="231.77" r="3.2" fill="white" stroke="#b3c4ba" data-hole="A6"/><circle cx="487.00" cy="231.77" r="3.2" fill="white" stroke="#b3c4ba" data-hole="A7"/><circle cx="425.31" cy="231.77" r="3.2" fill="white" stroke="#b3c4ba" data-hole="A8"/><circle cx="363.63" cy="231.77" r="3.2" fill="white" stroke="#b3c4ba" data-hole="A9"/><circle cx="301.94" cy="231.77" r="3.2" fill="white" stroke="#b3c4ba" data-hole="A10"/><circle cx="240.26" cy="231.77" r="3.2" fill="white" stroke="#b3c4ba" data-hole="A11"/><circle cx="178.57" cy="231.77" r="3.2" fill="white" stroke="#b3c4ba" data-hole="A12"/><circle cx="116.89" cy="231.77" r="3.2" fill="white" stroke="#b3c4ba" data-hole="A13"/><text x="38.00" y="299.46" font-size="18" text-anchor="middle">B</text><circle cx="857.11" cy="293.46" r="3.2" fill="white" stroke="#b3c4ba" data-hole="B1"/><circle cx="795.43" cy="293.46" r="3.2" fill="white" stroke="#b3c4ba" data-hole="B2"/><circle cx="733.74" cy="293.46" r="3.2" fill="white" stroke="#b3c4ba" data-hole="B3"/><circle cx="672.06" cy="293.46" r="3.2" fill="white" stroke="#b3c4ba" data-hole="B4"/><circle cx="610.37" cy="293.46" r="3.2" fill="white" stroke="#b3c4ba" data-hole="B5"/><circle cx="548.69" cy="293.46" r="3.2" fill="white" stroke="#b3c4ba" data-hole="B6"/><circle cx="487.00" cy="293.46" r="3.2" fill="white" stroke="#b3c4ba" data-hole="B7"/><circle cx="425.31" cy="293.46" r="3.2" fill="white" stroke="#b3c4ba" data-hole="B8"/><circle cx="363.63" cy="293.46" r="3.2" fill="white" stroke="#b3c4ba" data-hole="B9"/><circle cx="301.94" cy="293.46" r="3.2" fill="white" stroke="#b3c4ba" data-hole="B10"/><circle cx="240.26" cy="293.46" r="3.2" fill="white" stroke="#b3c4ba" data-hole="B11"/><circle cx="178.57" cy="293.46" r="3.2" fill="white" stroke="#b3c4ba" data-hole="B12"/>
<circle cx="116.89" cy="293.46" r="3.2" fill="white" stroke="#b3c4ba" data-hole="B13"/><text x="38.00" y="361.14" font-size="18" text-anchor="middle">C</text><circle cx="857.11" cy="355.14" r="3.2" fill="white" stroke="#b3c4ba" data-hole="C1"/><circle cx="795.43" cy="355.14" r="3.2" fill="white" stroke="#b3c4ba" data-hole="C2"/><circle cx="733.74" cy="355.14" r="3.2" fill="white" stroke="#b3c4ba" data-hole="C3"/><circle cx="672.06" cy="355.14" r="3.2" fill="white" stroke="#b3c4ba" data-hole="C4"/><circle cx="610.37" cy="355.14" r="3.2" fill="white" stroke="#b3c4ba" data-hole="C5"/><circle cx="548.69" cy="355.14" r="3.2" fill="white" stroke="#b3c4ba" data-hole="C6"/><circle cx="487.00" cy="355.14" r="3.2" fill="white" stroke="#b3c4ba" data-hole="C7"/><circle cx="425.31" cy="355.14" r="3.2" fill="white" stroke="#b3c4ba" data-hole="C8"/><circle cx="363.63" cy="355.14" r="3.2" fill="white" stroke="#b3c4ba" data-hole="C9"/><circle cx="301.94" cy="355.14" r="3.2" fill="white" stroke="#b3c4ba" data-hole="C10"/><circle cx="240.26" cy="355.14" r="3.2" fill="white" stroke="#b3c4ba" data-hole="C11"/><circle cx="178.57" cy="355.14" r="3.2" fill="white" stroke="#b3c4ba" data-hole="C12"/><circle cx="116.89" cy="355.14" r="3.2" fill="white" stroke="#b3c4ba" data-hole="C13"/><text x="38.00" y="422.83" font-size="18" text-anchor="middle">D</text><circle cx="857.11" cy="416.83" r="3.2" fill="white" stroke="#b3c4ba" data-hole="D1"/><circle cx="795.43" cy="416.83" r="3.2" fill="white" stroke="#b3c4ba" data-hole="D2"/><circle cx="733.74" cy="416.83" r="3.2" fill="white" stroke="#b3c4ba" data-hole="D3"/><circle cx="672.06" cy="416.83" r="3.2" fill="white" stroke="#b3c4ba" data-hole="D4"/><circle cx="610.37" cy="416.83" r="3.2" fill="white" stroke="#b3c4ba" data-hole="D5"/><circle cx="548.69" cy="416.83" r="3.2" fill="white" stroke="#b3c4ba" data-hole="D6"/><circle cx="487.00" cy="416.83" r="3.2" fill="white" stroke="#b3c4ba" data-hole="D7"/><circle cx="425.31" cy="416.83" r="3.2" fill="white" stroke="#b3c4ba" data-hole="D8"/>
<circle cx="363.63" cy="416.83" r="3.2" fill="white" stroke="#b3c4ba" data-hole="D9"/><circle cx="301.94" cy="416.83" r="3.2" fill="white" stroke="#b3c4ba" data-hole="D10"/><circle cx="240.26" cy="416.83" r="3.2" fill="white" stroke="#b3c4ba" data-hole="D11"/><circle cx="178.57" cy="416.83" r="3.2" fill="white" stroke="#b3c4ba" data-hole="D12"/><circle cx="116.89" cy="416.83" r="3.2" fill="white" stroke="#b3c4ba" data-hole="D13"/><text x="38.00" y="484.51" font-size="18" text-anchor="middle">E</text><circle cx="857.11" cy="478.51" r="3.2" fill="white" stroke="#b3c4ba" data-hole="E1"/><circle cx="795.43" cy="478.51" r="3.2" fill="white" stroke="#b3c4ba" data-hole="E2"/><circle cx="733.74" cy="478.51" r="3.2" fill="white" stroke="#b3c4ba" data-hole="E3"/><circle cx="672.06" cy="478.51" r="3.2" fill="white" stroke="#b3c4ba" data-hole="E4"/><circle cx="610.37" cy="478.51" r="3.2" fill="white" stroke="#b3c4ba" data-hole="E5"/><circle cx="548.69" cy="478.51" r="3.2" fill="white" stroke="#b3c4ba" data-hole="E6"/><circle cx="487.00" cy="478.51" r="3.2" fill="white" stroke="#b3c4ba" data-hole="E7"/><circle cx="425.31" cy="478.51" r="3.2" fill="white" stroke="#b3c4ba" data-hole="E8"/><circle cx="363.63" cy="478.51" r="3.2" fill="white" stroke="#b3c4ba" data-hole="E9"/><circle cx="301.94" cy="478.51" r="3.2" fill="white" stroke="#b3c4ba" data-hole="E10"/><circle cx="240.26" cy="478.51" r="3.2" fill="white" stroke="#b3c4ba" data-hole="E11"/><circle cx="178.57" cy="478.51" r="3.2" fill="white" stroke="#b3c4ba" data-hole="E12"/><circle cx="116.89" cy="478.51" r="3.2" fill="white" stroke="#b3c4ba" data-hole="E13"/><circle cx="857.11" cy="231.77" r="10" fill="none" stroke="#192b33" /><text x="857.11" y="132.00" font-size="17" text-anchor="middle">A1 physical corner</text><g data-conductor="driver-J01" data-method="insulated wire"><path d="M795.43,293.46 L795.43,293.46 L733.74,416.83 L733.74,416.83" fill="none" stroke="white" stroke-width="9" stroke-linecap="round" stroke-linejoin="round"/><path d="M795.43,293.46 L795.43,293.46 L733.74,416.83 L733.74,416.83" fill="none" stroke="#d0ad65" stroke-width="4" stroke-linecap="round" stroke-linejoin="round"/>
</g><g data-conductor="driver-J02" data-method="insulated wire"><path d="M733.74,416.83 L733.74,416.83 L733.74,478.51 L733.74,478.51" fill="none" stroke="white" stroke-width="9" stroke-linecap="round" stroke-linejoin="round"/><path d="M733.74,416.83 L733.74,416.83 L733.74,478.51 L733.74,478.51" fill="none" stroke="#d0ad65" stroke-width="4" stroke-linecap="round" stroke-linejoin="round"/></g><g data-conductor="driver-J03" data-method="insulated wire"><path d="M795.43,355.14 L795.43,355.14 L795.43,478.51 L795.43,478.51" fill="none" stroke="white" stroke-width="9" stroke-linecap="round" stroke-linejoin="round"/><path d="M795.43,355.14 L795.43,355.14 L795.43,478.51 L795.43,478.51" fill="none" stroke="#577481" stroke-width="4" stroke-linecap="round" stroke-linejoin="round"/></g><g data-conductor="driver-J04" data-method="insulated wire"><path d="M672.06,293.46 L672.06,293.46 L610.37,416.83 L610.37,416.83" fill="none" stroke="white" stroke-width="9" stroke-linecap="round" stroke-linejoin="round"/><path d="M672.06,293.46 L672.06,293.46 L610.37,416.83 L610.37,416.83" fill="none" stroke="#d0ad65" stroke-width="4" stroke-linecap="round" stroke-linejoin="round"/></g><g data-conductor="driver-J05" data-method="insulated wire"><path d="M610.37,416.83 L610.37,416.83 L610.37,478.51 L610.37,478.51" fill="none" stroke="white" stroke-width="9" stroke-linecap="round" stroke-linejoin="round"/><path d="M610.37,416.83 L610.37,416.83 L610.37,478.51 L610.37,478.51" fill="none" stroke="#d0ad65" stroke-width="4" stroke-linecap="round" stroke-linejoin="round"/></g><g data-conductor="driver-J06" data-method="insulated wire"><path d="M672.06,355.14 L672.06,355.14 L672.06,478.51 L672.06,478.51" fill="none" stroke="white" stroke-width="9" stroke-linecap="round" stroke-linejoin="round"/><path d="M672.06,355.14 L672.06,355.14 L672.06,478.51 L672.06,478.51" fill="none" stroke="#577481" stroke-width="4" stroke-linecap="round" stroke-linejoin="round"/></g><g data-conductor="driver-J07" data-method="insulated wire"><path d="M548.69,293.46 L548.69,293.46 L487.00,416.83 L487.00,416.83" fill="none" stroke="white" stroke-width="9" stroke-linecap="round" stroke-linejoin="round"/><path d="M548.69,293.46 L548.69,293.46 L487.00,416.83 L487.00,416.83" fill="none" stroke="#d0ad65" stroke-width="4" stroke-linecap="round" stroke-linejoin="round"/>
</g><g data-conductor="driver-J08" data-method="insulated wire"><path d="M487.00,416.83 L487.00,416.83 L487.00,478.51 L487.00,478.51" fill="none" stroke="white" stroke-width="9" stroke-linecap="round" stroke-linejoin="round"/><path d="M487.00,416.83 L487.00,416.83 L487.00,478.51 L487.00,478.51" fill="none" stroke="#d0ad65" stroke-width="4" stroke-linecap="round" stroke-linejoin="round"/></g><g data-conductor="driver-J09" data-method="insulated wire"><path d="M548.69,355.14 L548.69,355.14 L548.69,478.51 L548.69,478.51" fill="none" stroke="white" stroke-width="9" stroke-linecap="round" stroke-linejoin="round"/><path d="M548.69,355.14 L548.69,355.14 L548.69,478.51 L548.69,478.51" fill="none" stroke="#577481" stroke-width="4" stroke-linecap="round" stroke-linejoin="round"/></g><g data-conductor="driver-J10" data-method="insulated wire"><path d="M425.31,293.46 L425.31,293.46 L363.63,416.83 L363.63,416.83" fill="none" stroke="white" stroke-width="9" stroke-linecap="round" stroke-linejoin="round"/><path d="M425.31,293.46 L425.31,293.46 L363.63,416.83 L363.63,416.83" fill="none" stroke="#d0ad65" stroke-width="4" stroke-linecap="round" stroke-linejoin="round"/></g><g data-conductor="driver-J11" data-method="insulated wire"><path d="M363.63,416.83 L363.63,416.83 L363.63,478.51 L363.63,478.51" fill="none" stroke="white" stroke-width="9" stroke-linecap="round" stroke-linejoin="round"/><path d="M363.63,416.83 L363.63,416.83 L363.63,478.51 L363.63,478.51" fill="none" stroke="#d0ad65" stroke-width="4" stroke-linecap="round" stroke-linejoin="round"/></g><g data-conductor="driver-J12" data-method="insulated wire"><path d="M425.31,355.14 L425.31,355.14 L425.31,478.51 L425.31,478.51" fill="none" stroke="white" stroke-width="9" stroke-linecap="round" stroke-linejoin="round"/><path d="M425.31,355.14 L425.31,355.14 L425.31,478.51 L425.31,478.51" fill="none" stroke="#577481" stroke-width="4" stroke-linecap="round" stroke-linejoin="round"/></g><g data-conductor="driver-J13" data-method="insulated wire"><path d="M301.94,293.46 L301.94,293.46 L240.26,416.83 L240.26,416.83" fill="none" stroke="white" stroke-width="9" stroke-linecap="round" stroke-linejoin="round"/><path d="M301.94,293.46 L301.94,293.46 L240.26,416.83 L240.26,416.83" fill="none" stroke="#d0ad65" stroke-width="4" stroke-linecap="round" stroke-linejoin="round"/>
</g><g data-conductor="driver-J14" data-method="insulated wire"><path d="M240.26,416.83 L240.26,416.83 L240.26,478.51 L240.26,478.51" fill="none" stroke="white" stroke-width="9" stroke-linecap="round" stroke-linejoin="round"/><path d="M240.26,416.83 L240.26,416.83 L240.26,478.51 L240.26,478.51" fill="none" stroke="#d0ad65" stroke-width="4" stroke-linecap="round" stroke-linejoin="round"/></g><g data-conductor="driver-J15" data-method="insulated wire"><path d="M301.94,355.14 L301.94,355.14 L301.94,478.51 L301.94,478.51" fill="none" stroke="white" stroke-width="9" stroke-linecap="round" stroke-linejoin="round"/><path d="M301.94,355.14 L301.94,355.14 L301.94,478.51 L301.94,478.51" fill="none" stroke="#577481" stroke-width="4" stroke-linecap="round" stroke-linejoin="round"/></g><g data-conductor="driver-ground" data-method="ground bus"><path d="M795.43,355.14 L795.43,355.14 L672.06,355.14 L672.06,355.14" fill="none" stroke="white" stroke-width="9" stroke-linecap="round" stroke-linejoin="round"/><path d="M795.43,355.14 L795.43,355.14 L672.06,355.14 L672.06,355.14" fill="none" stroke="#577481" stroke-width="4" stroke-linecap="round" stroke-linejoin="round"/><path d="M672.06,355.14 L672.06,355.14 L548.69,355.14 L548.69,355.14" fill="none" stroke="white" stroke-width="9" stroke-linecap="round" stroke-linejoin="round"/><path d="M672.06,355.14 L672.06,355.14 L548.69,355.14 L548.69,355.14" fill="none" stroke="#577481" stroke-width="4" stroke-linecap="round" stroke-linejoin="round"/><path d="M548.69,355.14 L548.69,355.14 L425.31,355.14 L425.31,355.14" fill="none" stroke="white" stroke-width="9" stroke-linecap="round" stroke-linejoin="round"/><path d="M548.69,355.14 L548.69,355.14 L425.31,355.14 L425.31,355.14" fill="none" stroke="#577481" stroke-width="4" stroke-linecap="round" stroke-linejoin="round"/><path d="M425.31,355.14 L425.31,355.14 L301.94,355.14 L301.94,355.14" fill="none" stroke="white" stroke-width="9" stroke-linecap="round" stroke-linejoin="round"/><path d="M425.31,355.14 L425.31,355.14 L301.94,355.14 L301.94,355.14" fill="none" stroke="#577481" stroke-width="4" stroke-linecap="round" stroke-linejoin="round"/><path d="M301.94,355.14 L301.94,355.14 L116.89,355.14 L116.89,355.14" fill="none" stroke="white" stroke-width="9" stroke-linecap="round" stroke-linejoin="round"/><path d="M301.94,355.14 L301.94,355.14 L116.89,355.14 L116.89,355.14" fill="none" stroke="#577481" stroke-width="4" stroke-linecap="round" stroke-linejoin="round"/></g><circle cx="857.11" cy="231.77" r="6.5" fill="#f7faf8" stroke="none" /><circle cx="857.11" cy="231.77" r="3.2" fill="white" stroke="#b3c4ba" /><circle cx="795.43" cy="231.77" r="6.5" fill="#f7faf8" stroke="none" />
<circle cx="795.43" cy="231.77" r="3.2" fill="white" stroke="#b3c4ba" /><circle cx="733.74" cy="231.77" r="6.5" fill="#f7faf8" stroke="none" /><circle cx="733.74" cy="231.77" r="3.2" fill="white" stroke="#b3c4ba" /><circle cx="672.06" cy="231.77" r="6.5" fill="#f7faf8" stroke="none" /><circle cx="672.06" cy="231.77" r="3.2" fill="white" stroke="#b3c4ba" /><circle cx="610.37" cy="231.77" r="6.5" fill="#f7faf8" stroke="none" /><circle cx="610.37" cy="231.77" r="3.2" fill="white" stroke="#b3c4ba" /><circle cx="548.69" cy="231.77" r="6.5" fill="#f7faf8" stroke="none" /><circle cx="548.69" cy="231.77" r="3.2" fill="white" stroke="#b3c4ba" /><circle cx="487.00" cy="231.77" r="6.5" fill="#f7faf8" stroke="none" /><circle cx="487.00" cy="231.77" r="3.2" fill="white" stroke="#b3c4ba" /><circle cx="425.31" cy="231.77" r="6.5" fill="#f7faf8" stroke="none" /><circle cx="425.31" cy="231.77" r="3.2" fill="white" stroke="#b3c4ba" /><circle cx="363.63" cy="231.77" r="6.5" fill="#f7faf8" stroke="none" /><circle cx="363.63" cy="231.77" r="3.2" fill="white" stroke="#b3c4ba" /><circle cx="301.94" cy="231.77" r="6.5" fill="#f7faf8" stroke="none" /><circle cx="301.94" cy="231.77" r="3.2" fill="white" stroke="#b3c4ba" /><circle cx="240.26" cy="231.77" r="6.5" fill="#f7faf8" stroke="none" /><circle cx="240.26" cy="231.77" r="3.2" fill="white" stroke="#b3c4ba" /><circle cx="178.57" cy="231.77" r="6.5" fill="#f7faf8" stroke="none" /><circle cx="178.57" cy="231.77" r="3.2" fill="white" stroke="#b3c4ba" /><circle cx="116.89" cy="231.77" r="6.5" fill="#f7faf8" stroke="none" /><circle cx="116.89" cy="231.77" r="3.2" fill="white" stroke="#b3c4ba" /><circle cx="857.11" cy="293.46" r="6.5" fill="#f7faf8" stroke="none" />
<circle cx="857.11" cy="293.46" r="3.2" fill="white" stroke="#b3c4ba" /><circle cx="795.43" cy="293.46" r="6.5" fill="#f7faf8" stroke="none" /><circle cx="795.43" cy="293.46" r="3.2" fill="white" stroke="#b3c4ba" /><circle cx="733.74" cy="293.46" r="6.5" fill="#f7faf8" stroke="none" /><circle cx="733.74" cy="293.46" r="3.2" fill="white" stroke="#b3c4ba" /><circle cx="672.06" cy="293.46" r="6.5" fill="#f7faf8" stroke="none" /><circle cx="672.06" cy="293.46" r="3.2" fill="white" stroke="#b3c4ba" /><circle cx="610.37" cy="293.46" r="6.5" fill="#f7faf8" stroke="none" /><circle cx="610.37" cy="293.46" r="3.2" fill="white" stroke="#b3c4ba" /><circle cx="548.69" cy="293.46" r="6.5" fill="#f7faf8" stroke="none" /><circle cx="548.69" cy="293.46" r="3.2" fill="white" stroke="#b3c4ba" /><circle cx="487.00" cy="293.46" r="6.5" fill="#f7faf8" stroke="none" /><circle cx="487.00" cy="293.46" r="3.2" fill="white" stroke="#b3c4ba" /><circle cx="425.31" cy="293.46" r="6.5" fill="#f7faf8" stroke="none" /><circle cx="425.31" cy="293.46" r="3.2" fill="white" stroke="#b3c4ba" /><circle cx="363.63" cy="293.46" r="6.5" fill="#f7faf8" stroke="none" /><circle cx="363.63" cy="293.46" r="3.2" fill="white" stroke="#b3c4ba" /><circle cx="301.94" cy="293.46" r="6.5" fill="#f7faf8" stroke="none" /><circle cx="301.94" cy="293.46" r="3.2" fill="white" stroke="#b3c4ba" /><circle cx="240.26" cy="293.46" r="6.5" fill="#f7faf8" stroke="none" /><circle cx="240.26" cy="293.46" r="3.2" fill="white" stroke="#b3c4ba" /><circle cx="178.57" cy="293.46" r="6.5" fill="#f7faf8" stroke="none" /><circle cx="178.57" cy="293.46" r="3.2" fill="white" stroke="#b3c4ba" /><circle cx="116.89" cy="293.46" r="6.5" fill="#f7faf8" stroke="none" />
<circle cx="116.89" cy="293.46" r="3.2" fill="white" stroke="#b3c4ba" /><circle cx="857.11" cy="355.14" r="6.5" fill="#f7faf8" stroke="none" /><circle cx="857.11" cy="355.14" r="3.2" fill="white" stroke="#b3c4ba" /><circle cx="795.43" cy="355.14" r="6.5" fill="#f7faf8" stroke="none" /><circle cx="795.43" cy="355.14" r="3.2" fill="white" stroke="#b3c4ba" /><circle cx="733.74" cy="355.14" r="6.5" fill="#f7faf8" stroke="none" /><circle cx="733.74" cy="355.14" r="3.2" fill="white" stroke="#b3c4ba" /><circle cx="672.06" cy="355.14" r="6.5" fill="#f7faf8" stroke="none" /><circle cx="672.06" cy="355.14" r="3.2" fill="white" stroke="#b3c4ba" /><circle cx="610.37" cy="355.14" r="6.5" fill="#f7faf8" stroke="none" /><circle cx="610.37" cy="355.14" r="3.2" fill="white" stroke="#b3c4ba" /><circle cx="548.69" cy="355.14" r="6.5" fill="#f7faf8" stroke="none" /><circle cx="548.69" cy="355.14" r="3.2" fill="white" stroke="#b3c4ba" /><circle cx="487.00" cy="355.14" r="6.5" fill="#f7faf8" stroke="none" /><circle cx="487.00" cy="355.14" r="3.2" fill="white" stroke="#b3c4ba" /><circle cx="425.31" cy="355.14" r="6.5" fill="#f7faf8" stroke="none" /><circle cx="425.31" cy="355.14" r="3.2" fill="white" stroke="#b3c4ba" /><circle cx="363.63" cy="355.14" r="6.5" fill="#f7faf8" stroke="none" /><circle cx="363.63" cy="355.14" r="3.2" fill="white" stroke="#b3c4ba" /><circle cx="301.94" cy="355.14" r="6.5" fill="#f7faf8" stroke="none" /><circle cx="301.94" cy="355.14" r="3.2" fill="white" stroke="#b3c4ba" /><circle cx="240.26" cy="355.14" r="6.5" fill="#f7faf8" stroke="none" /><circle cx="240.26" cy="355.14" r="3.2" fill="white" stroke="#b3c4ba" /><circle cx="178.57" cy="355.14" r="6.5" fill="#f7faf8" stroke="none" />
<circle cx="178.57" cy="355.14" r="3.2" fill="white" stroke="#b3c4ba" /><circle cx="116.89" cy="355.14" r="6.5" fill="#f7faf8" stroke="none" /><circle cx="116.89" cy="355.14" r="3.2" fill="white" stroke="#b3c4ba" /><circle cx="857.11" cy="416.83" r="6.5" fill="#f7faf8" stroke="none" /><circle cx="857.11" cy="416.83" r="3.2" fill="white" stroke="#b3c4ba" /><circle cx="795.43" cy="416.83" r="6.5" fill="#f7faf8" stroke="none" /><circle cx="795.43" cy="416.83" r="3.2" fill="white" stroke="#b3c4ba" /><circle cx="733.74" cy="416.83" r="6.5" fill="#f7faf8" stroke="none" /><circle cx="733.74" cy="416.83" r="3.2" fill="white" stroke="#b3c4ba" /><circle cx="672.06" cy="416.83" r="6.5" fill="#f7faf8" stroke="none" /><circle cx="672.06" cy="416.83" r="3.2" fill="white" stroke="#b3c4ba" /><circle cx="610.37" cy="416.83" r="6.5" fill="#f7faf8" stroke="none" /><circle cx="610.37" cy="416.83" r="3.2" fill="white" stroke="#b3c4ba" /><circle cx="548.69" cy="416.83" r="6.5" fill="#f7faf8" stroke="none" /><circle cx="548.69" cy="416.83" r="3.2" fill="white" stroke="#b3c4ba" /><circle cx="487.00" cy="416.83" r="6.5" fill="#f7faf8" stroke="none" /><circle cx="487.00" cy="416.83" r="3.2" fill="white" stroke="#b3c4ba" /><circle cx="425.31" cy="416.83" r="6.5" fill="#f7faf8" stroke="none" /><circle cx="425.31" cy="416.83" r="3.2" fill="white" stroke="#b3c4ba" /><circle cx="363.63" cy="416.83" r="6.5" fill="#f7faf8" stroke="none" /><circle cx="363.63" cy="416.83" r="3.2" fill="white" stroke="#b3c4ba" /><circle cx="301.94" cy="416.83" r="6.5" fill="#f7faf8" stroke="none" /><circle cx="301.94" cy="416.83" r="3.2" fill="white" stroke="#b3c4ba" /><circle cx="240.26" cy="416.83" r="6.5" fill="#f7faf8" stroke="none" />
<circle cx="240.26" cy="416.83" r="3.2" fill="white" stroke="#b3c4ba" /><circle cx="178.57" cy="416.83" r="6.5" fill="#f7faf8" stroke="none" /><circle cx="178.57" cy="416.83" r="3.2" fill="white" stroke="#b3c4ba" /><circle cx="116.89" cy="416.83" r="6.5" fill="#f7faf8" stroke="none" /><circle cx="116.89" cy="416.83" r="3.2" fill="white" stroke="#b3c4ba" /><circle cx="857.11" cy="478.51" r="6.5" fill="#f7faf8" stroke="none" /><circle cx="857.11" cy="478.51" r="3.2" fill="white" stroke="#b3c4ba" /><circle cx="795.43" cy="478.51" r="6.5" fill="#f7faf8" stroke="none" /><circle cx="795.43" cy="478.51" r="3.2" fill="white" stroke="#b3c4ba" /><circle cx="733.74" cy="478.51" r="6.5" fill="#f7faf8" stroke="none" /><circle cx="733.74" cy="478.51" r="3.2" fill="white" stroke="#b3c4ba" /><circle cx="672.06" cy="478.51" r="6.5" fill="#f7faf8" stroke="none" /><circle cx="672.06" cy="478.51" r="3.2" fill="white" stroke="#b3c4ba" /><circle cx="610.37" cy="478.51" r="6.5" fill="#f7faf8" stroke="none" /><circle cx="610.37" cy="478.51" r="3.2" fill="white" stroke="#b3c4ba" /><circle cx="548.69" cy="478.51" r="6.5" fill="#f7faf8" stroke="none" /><circle cx="548.69" cy="478.51" r="3.2" fill="white" stroke="#b3c4ba" /><circle cx="487.00" cy="478.51" r="6.5" fill="#f7faf8" stroke="none" /><circle cx="487.00" cy="478.51" r="3.2" fill="white" stroke="#b3c4ba" /><circle cx="425.31" cy="478.51" r="6.5" fill="#f7faf8" stroke="none" /><circle cx="425.31" cy="478.51" r="3.2" fill="white" stroke="#b3c4ba" /><circle cx="363.63" cy="478.51" r="6.5" fill="#f7faf8" stroke="none" /><circle cx="363.63" cy="478.51" r="3.2" fill="white" stroke="#b3c4ba" /><circle cx="301.94" cy="478.51" r="6.5" fill="#f7faf8" stroke="none" />
<circle cx="301.94" cy="478.51" r="3.2" fill="white" stroke="#b3c4ba" /><circle cx="240.26" cy="478.51" r="6.5" fill="#f7faf8" stroke="none" /><circle cx="240.26" cy="478.51" r="3.2" fill="white" stroke="#b3c4ba" /><circle cx="178.57" cy="478.51" r="6.5" fill="#f7faf8" stroke="none" /><circle cx="178.57" cy="478.51" r="3.2" fill="white" stroke="#b3c4ba" /><circle cx="116.89" cy="478.51" r="6.5" fill="#f7faf8" stroke="none" /><circle cx="116.89" cy="478.51" r="3.2" fill="white" stroke="#b3c4ba" /><circle cx="795.43" cy="293.46" r="6" fill="#d0ad65" stroke="white" data-connected-hole="B2" data-net="GATE_G" data-conductor="driver-J01"/><circle cx="733.74" cy="416.83" r="6" fill="#d0ad65" stroke="white" data-connected-hole="D3" data-net="GATE_G" data-conductor="driver-J01"/><circle cx="764.59" cy="355.14" r="12" fill="white" stroke="#d0ad65" data-label-for="driver-J01" data-anchor-x="764.59" data-anchor-y="355.14"/><text x="764.59" y="359.14" font-size="12" text-anchor="middle">1</text><circle cx="733.74" cy="416.83" r="6" fill="#d0ad65" stroke="white" data-connected-hole="D3" data-net="GATE_G" data-conductor="driver-J02"/><circle cx="733.74" cy="478.51" r="6" fill="#d0ad65" stroke="white" data-connected-hole="E3" data-net="GATE_G" data-conductor="driver-J02"/><circle cx="733.74" cy="447.67" r="12" fill="white" stroke="#d0ad65" data-label-for="driver-J02" data-anchor-x="733.74" data-anchor-y="447.67"/><text x="733.74" y="451.67" font-size="12" text-anchor="middle">2</text><circle cx="795.43" cy="355.14" r="6" fill="#577481" stroke="white" data-connected-hole="C2" data-net="GND" data-conductor="driver-J03"/><circle cx="795.43" cy="478.51" r="6" fill="#577481" stroke="white" data-connected-hole="E2" data-net="GND" data-conductor="driver-J03"/><path d="M795.43,416.83 L795.43,390.83" fill="none" stroke="#52656d" stroke-width="1" stroke-linecap="round" stroke-linejoin="round"/><circle cx="795.43" cy="390.83" r="12" fill="white" stroke="#577481" data-label-for="driver-J03" data-anchor-x="795.43" data-anchor-y="416.83"/><text x="795.43" y="394.83" font-size="12" text-anchor="middle">3</text><circle cx="672.06" cy="293.46" r="6" fill="#d0ad65" stroke="white" data-connected-hole="B4" data-net="GATE_R" data-conductor="driver-J04"/><circle cx="610.37" cy="416.83" r="6" fill="#d0ad65" stroke="white" data-connected-hole="D5" data-net="GATE_R" data-conductor="driver-J04"/><circle cx="641.21" cy="355.14" r="12" fill="white" stroke="#d0ad65" data-label-for="driver-J04" data-anchor-x="641.21" data-anchor-y="355.14"/><text x="641.21" y="359.14" font-size="12" text-anchor="middle">4</text>
<circle cx="610.37" cy="416.83" r="6" fill="#d0ad65" stroke="white" data-connected-hole="D5" data-net="GATE_R" data-conductor="driver-J05"/><circle cx="610.37" cy="478.51" r="6" fill="#d0ad65" stroke="white" data-connected-hole="E5" data-net="GATE_R" data-conductor="driver-J05"/><circle cx="610.37" cy="447.67" r="12" fill="white" stroke="#d0ad65" data-label-for="driver-J05" data-anchor-x="610.37" data-anchor-y="447.67"/><text x="610.37" y="451.67" font-size="12" text-anchor="middle">5</text><circle cx="672.06" cy="355.14" r="6" fill="#577481" stroke="white" data-connected-hole="C4" data-net="GND" data-conductor="driver-J06"/><circle cx="672.06" cy="478.51" r="6" fill="#577481" stroke="white" data-connected-hole="E4" data-net="GND" data-conductor="driver-J06"/><path d="M672.06,416.83 L672.06,390.83" fill="none" stroke="#52656d" stroke-width="1" stroke-linecap="round" stroke-linejoin="round"/><circle cx="672.06" cy="390.83" r="12" fill="white" stroke="#577481" data-label-for="driver-J06" data-anchor-x="672.06" data-anchor-y="416.83"/><text x="672.06" y="394.83" font-size="12" text-anchor="middle">6</text><circle cx="548.69" cy="293.46" r="6" fill="#d0ad65" stroke="white" data-connected-hole="B6" data-net="GATE_B" data-conductor="driver-J07"/><circle cx="487.00" cy="416.83" r="6" fill="#d0ad65" stroke="white" data-connected-hole="D7" data-net="GATE_B" data-conductor="driver-J07"/><circle cx="517.84" cy="355.14" r="12" fill="white" stroke="#d0ad65" data-label-for="driver-J07" data-anchor-x="517.84" data-anchor-y="355.14"/><text x="517.84" y="359.14" font-size="12" text-anchor="middle">7</text><circle cx="487.00" cy="416.83" r="6" fill="#d0ad65" stroke="white" data-connected-hole="D7" data-net="GATE_B" data-conductor="driver-J08"/><circle cx="487.00" cy="478.51" r="6" fill="#d0ad65" stroke="white" data-connected-hole="E7" data-net="GATE_B" data-conductor="driver-J08"/><circle cx="487.00" cy="447.67" r="12" fill="white" stroke="#d0ad65" data-label-for="driver-J08" data-anchor-x="487.00" data-anchor-y="447.67"/><text x="487.00" y="451.67" font-size="12" text-anchor="middle">8</text><circle cx="548.69" cy="355.14" r="6" fill="#577481" stroke="white" data-connected-hole="C6" data-net="GND" data-conductor="driver-J09"/><circle cx="548.69" cy="478.51" r="6" fill="#577481" stroke="white" data-connected-hole="E6" data-net="GND" data-conductor="driver-J09"/><path d="M548.69,416.83 L548.69,390.83" fill="none" stroke="#52656d" stroke-width="1" stroke-linecap="round" stroke-linejoin="round"/><circle cx="548.69" cy="390.83" r="12" fill="white" stroke="#577481" data-label-for="driver-J09" data-anchor-x="548.69" data-anchor-y="416.83"/><text x="548.69" y="394.83" font-size="12" text-anchor="middle">9</text><circle cx="425.31" cy="293.46" r="6" fill="#d0ad65" stroke="white" data-connected-hole="B8" data-net="GATE_WW" data-conductor="driver-J10"/><circle cx="363.63" cy="416.83" r="6" fill="#d0ad65" stroke="white" data-connected-hole="D9" data-net="GATE_WW" data-conductor="driver-J10"/>
<circle cx="394.47" cy="355.14" r="12" fill="white" stroke="#d0ad65" data-label-for="driver-J10" data-anchor-x="394.47" data-anchor-y="355.14"/><text x="394.47" y="359.14" font-size="12" text-anchor="middle">10</text><circle cx="363.63" cy="416.83" r="6" fill="#d0ad65" stroke="white" data-connected-hole="D9" data-net="GATE_WW" data-conductor="driver-J11"/><circle cx="363.63" cy="478.51" r="6" fill="#d0ad65" stroke="white" data-connected-hole="E9" data-net="GATE_WW" data-conductor="driver-J11"/><circle cx="363.63" cy="447.67" r="12" fill="white" stroke="#d0ad65" data-label-for="driver-J11" data-anchor-x="363.63" data-anchor-y="447.67"/><text x="363.63" y="451.67" font-size="12" text-anchor="middle">11</text><circle cx="425.31" cy="355.14" r="6" fill="#577481" stroke="white" data-connected-hole="C8" data-net="GND" data-conductor="driver-J12"/><circle cx="425.31" cy="478.51" r="6" fill="#577481" stroke="white" data-connected-hole="E8" data-net="GND" data-conductor="driver-J12"/><path d="M425.31,416.83 L425.31,390.83" fill="none" stroke="#52656d" stroke-width="1" stroke-linecap="round" stroke-linejoin="round"/><circle cx="425.31" cy="390.83" r="12" fill="white" stroke="#577481" data-label-for="driver-J12" data-anchor-x="425.31" data-anchor-y="416.83"/><text x="425.31" y="394.83" font-size="12" text-anchor="middle">12</text><circle cx="301.94" cy="293.46" r="6" fill="#d0ad65" stroke="white" data-connected-hole="B10" data-net="GATE_CW" data-conductor="driver-J13"/><circle cx="240.26" cy="416.83" r="6" fill="#d0ad65" stroke="white" data-connected-hole="D11" data-net="GATE_CW" data-conductor="driver-J13"/><circle cx="271.10" cy="355.14" r="12" fill="white" stroke="#d0ad65" data-label-for="driver-J13" data-anchor-x="271.10" data-anchor-y="355.14"/><text x="271.10" y="359.14" font-size="12" text-anchor="middle">13</text><circle cx="240.26" cy="416.83" r="6" fill="#d0ad65" stroke="white" data-connected-hole="D11" data-net="GATE_CW" data-conductor="driver-J14"/><circle cx="240.26" cy="478.51" r="6" fill="#d0ad65" stroke="white" data-connected-hole="E11" data-net="GATE_CW" data-conductor="driver-J14"/><circle cx="240.26" cy="447.67" r="12" fill="white" stroke="#d0ad65" data-label-for="driver-J14" data-anchor-x="240.26" data-anchor-y="447.67"/><text x="240.26" y="451.67" font-size="12" text-anchor="middle">14</text><circle cx="301.94" cy="355.14" r="6" fill="#577481" stroke="white" data-connected-hole="C10" data-net="GND" data-conductor="driver-J15"/><circle cx="301.94" cy="478.51" r="6" fill="#577481" stroke="white" data-connected-hole="E10" data-net="GND" data-conductor="driver-J15"/><path d="M301.94,416.83 L301.94,390.83" fill="none" stroke="#52656d" stroke-width="1" stroke-linecap="round" stroke-linejoin="round"/><circle cx="301.94" cy="390.83" r="12" fill="white" stroke="#577481" data-label-for="driver-J15" data-anchor-x="301.94" data-anchor-y="416.83"/><text x="301.94" y="394.83" font-size="12" text-anchor="middle">15</text>
<circle cx="795.43" cy="355.14" r="6" fill="#577481" stroke="white" data-connected-hole="C2" data-net="GND" data-conductor="driver-ground"/><circle cx="672.06" cy="355.14" r="6" fill="#577481" stroke="white" data-connected-hole="C4" data-net="GND" data-conductor="driver-ground"/><circle cx="548.69" cy="355.14" r="6" fill="#577481" stroke="white" data-connected-hole="C6" data-net="GND" data-conductor="driver-ground"/><circle cx="425.31" cy="355.14" r="6" fill="#577481" stroke="white" data-connected-hole="C8" data-net="GND" data-conductor="driver-ground"/><circle cx="301.94" cy="355.14" r="6" fill="#577481" stroke="white" data-connected-hole="C10" data-net="GND" data-conductor="driver-ground"/><circle cx="116.89" cy="355.14" r="6" fill="#577481" stroke="white" data-connected-hole="C13" data-net="GND" data-conductor="driver-ground"/><circle cx="456.16" cy="355.14" r="12" fill="white" stroke="#577481" data-label-for="driver-ground" data-anchor-x="456.16" data-anchor-y="355.14"/><text x="456.16" y="359.14" font-size="12" text-anchor="middle">16</text><text x="62.00" y="610.00" font-size="18" font-weight="bold">EXTERNAL WIRE TERMINALS · square marks on the board</text><rect x="787.43" y="408.83" width="16" height="16" fill="none" stroke="#d0ad65" stroke-width="2"/><text x="62.00" y="639.00" font-size="16" font-weight="bold">D2  PWM_G</text><text x="62.00" y="658.00" font-size="14" >ESP GPIO5</text><rect x="787.43" y="223.77" width="16" height="16" fill="none" stroke="#d0ad65" stroke-width="2"/><text x="500.00" y="639.00" font-size="16" font-weight="bold">A2  LED_G</text><text x="500.00" y="658.00" font-size="14" >LED.G</text><rect x="664.06" y="408.83" width="16" height="16" fill="none" stroke="#d0ad65" stroke-width="2"/><text x="62.00" y="684.00" font-size="16" font-weight="bold">D4  PWM_R</text><text x="62.00" y="703.00" font-size="14" >C3: ESP GPIO6 / S3: ESP GPIO4</text><rect x="664.06" y="223.77" width="16" height="16" fill="none" stroke="#d0ad65" stroke-width="2"/><text x="500.00" y="684.00" font-size="16" font-weight="bold">A4  LED_R</text><text x="500.00" y="703.00" font-size="14" >LED.R</text><rect x="540.69" y="408.83" width="16" height="16" fill="none" stroke="#d0ad65" stroke-width="2"/><text x="62.00" y="729.00" font-size="16" font-weight="bold">D6  PWM_B</text><text x="62.00" y="748.00" font-size="14" >C3: ESP GPIO7 / S3: ESP GPIO6</text>
<rect x="540.69" y="223.77" width="16" height="16" fill="none" stroke="#d0ad65" stroke-width="2"/><text x="500.00" y="729.00" font-size="16" font-weight="bold">A6  LED_B</text><text x="500.00" y="748.00" font-size="14" >LED.B</text><rect x="417.31" y="408.83" width="16" height="16" fill="none" stroke="#d0ad65" stroke-width="2"/><text x="62.00" y="774.00" font-size="16" font-weight="bold">D8  PWM_WW</text><text x="62.00" y="793.00" font-size="14" >ESP GPIO10</text><rect x="417.31" y="223.77" width="16" height="16" fill="none" stroke="#d0ad65" stroke-width="2"/><text x="500.00" y="774.00" font-size="16" font-weight="bold">A8  LED_WW</text><text x="500.00" y="793.00" font-size="14" >LED.WW</text><rect x="293.94" y="408.83" width="16" height="16" fill="none" stroke="#d0ad65" stroke-width="2"/><text x="62.00" y="819.00" font-size="16" font-weight="bold">D10  PWM_CW</text><text x="62.00" y="838.00" font-size="14" >C3: ESP GPIO20 / S3: ESP GPIO11</text><rect x="293.94" y="223.77" width="16" height="16" fill="none" stroke="#d0ad65" stroke-width="2"/><text x="500.00" y="819.00" font-size="16" font-weight="bold">A10  LED_CW</text><text x="500.00" y="838.00" font-size="14" >LED.CW</text><rect x="108.89" y="347.14" width="16" height="16" fill="none" stroke="#577481" stroke-width="2"/><text x="62.00" y="864.00" font-size="16" font-weight="bold">C13  GND</text><text x="62.00" y="883.00" font-size="14" >Compact latch I11 / protected CHG.OUT-</text><text x="968.00" y="138.00" font-size="18" font-weight="bold">CONNECTIONS · one row per physical conductor</text><text x="968.00" y="169.00" font-size="16" class="mono">01 WIRE  B2 → D3  GATE_G</text><text x="968.00" y="191.00" font-size="16" class="mono">02 WIRE  D3 → E3  GATE_G</text><text x="968.00" y="213.00" font-size="16" class="mono">03 WIRE  C2 → E2  GND</text><text x="968.00" y="235.00" font-size="16" class="mono">04 WIRE  B4 → D5  GATE_R</text><text x="968.00" y="257.00" font-size="16" class="mono">05 WIRE  D5 → E5  GATE_R</text>
<text x="968.00" y="279.00" font-size="16" class="mono">06 WIRE  C4 → E4  GND</text><text x="968.00" y="301.00" font-size="16" class="mono">07 WIRE  B6 → D7  GATE_B</text><text x="968.00" y="323.00" font-size="16" class="mono">08 WIRE  D7 → E7  GATE_B</text><text x="968.00" y="345.00" font-size="16" class="mono">09 WIRE  C6 → E6  GND</text><text x="968.00" y="367.00" font-size="16" class="mono">10 WIRE  B8 → D9  GATE_WW</text><text x="968.00" y="389.00" font-size="16" class="mono">11 WIRE  D9 → E9  GATE_WW</text><text x="968.00" y="411.00" font-size="16" class="mono">12 WIRE  C8 → E8  GND</text><text x="968.00" y="433.00" font-size="16" class="mono">13 WIRE  B10 → D11  GATE_CW</text><text x="968.00" y="455.00" font-size="16" class="mono">14 WIRE  D11 → E11  GATE_CW</text><text x="968.00" y="477.00" font-size="16" class="mono">15 WIRE  C10 → E10  GND</text><text x="968.00" y="499.00" font-size="16" class="mono">16 BUS  C2 → C13  GND</text><text x="998.00" y="518.00" font-size="12" >Taps: C2 / C4 / C6 / C8 / C10 / C13</text><text x="968.00" y="544.00" font-size="14" >LEG = existing component leg, bare silver line. WIRE/BUS = added</text><text x="968.00" y="563.00" font-size="14" >insulated conductor. Filled dots are deliberate solder joints,</text><text x="968.00" y="582.00" font-size="14" >including intermediate pads. White gaps at other pads do not join.</text><text x="968.00" y="601.00" font-size="14" >Solder every hole listed for each retained leg and bus.</text><text x="968.00" y="970.00" font-size="17" >Identify actual E/B/C or D/G/S roles first; package outlines</text><text x="968.00" y="993.00" font-size="17" >do not specify pin order. Leave retained legs untrimmed until</text><text x="968.00" y="1016.00" font-size="17" >their joints are complete. Insulate crossings that are not</text><text x="968.00" y="1039.00" font-size="17" >joined.</text><path d="M60.00,1134.00 L1615.00,1134.00" fill="none" stroke="#c5cfd2" stroke-width="1" stroke-linecap="round" stroke-linejoin="round"/><text x="60.00" y="1161.00" font-size="16" >Only listed solder joints connect. Blank-board pads are separate. OUT− is system ground; BAT− stays separate.</text><text x="1615.00" y="1161.00" font-size="14" text-anchor="end">perfboard-reference-2</text></svg>
